<svg id="Layer_1" data-name="Layer 1" xmlns="http://www.w3.org/2000/svg" viewBox="0 0 190.1924 46.3578"><defs><style>.cls-1{fill:#fff;}</style></defs><path d="M21.25,30.1492a8.8462,8.8462,0,0,1-1.82,1.5136,11.9493,11.9493,0,0,1-3.1445,1.3926,16.2743,16.2743,0,0,1-4.6568.58,11.1356,11.1356,0,0,1-5.6738-1.41,9.5641,9.5641,0,0,1-3.8023-4.1094A14.4286,14.4286,0,0,1,.7935,21.5705V20.1521A14.9674,14.9674,0,0,1,2.1006,13.59a9.49,9.49,0,0,1,3.666-4.1187A10.4722,10.4722,0,0,1,11.27,8.0525,11.9192,11.9192,0,0,1,16.67,9.12a7.5962,7.5962,0,0,1,3.2041,2.9483,10.6278,10.6278,0,0,1,1.3589,4.3237H16.02a5.8078,5.8078,0,0,0-.6924-2.145,3.5307,3.5307,0,0,0-1.4609-1.3838,5.3064,5.3064,0,0,0-2.4439-.4873,4.5638,4.5638,0,0,0-2.82.8716A5.3435,5.3435,0,0,0,6.835,15.8371a12.9739,12.9739,0,0,0-.607,4.2808v1.4526a12.2048,12.2048,0,0,0,.6494,4.272A5.2783,5.2783,0,0,0,8.8,28.44a5.4451,5.4451,0,0,0,3.1533.872,8.2792,8.2792,0,0,0,1.9312-.1884,5.0555,5.0555,0,0,0,1.2475-.4532,3.7007,3.7007,0,0,0,.7349-.5039V24.0315H11.355V20.1179H21.25Z" transform="translate(-0.7935 -0.9109)"/><path d="M33.5718,33.6355a9.7444,9.7444,0,0,1-4.9986-1.2129,8.2746,8.2746,0,0,1-3.1787-3.2471,9.2739,9.2739,0,0,1-1.1025-4.4946v-.6665a11.1428,11.1428,0,0,1,1.0508-4.93,8.116,8.116,0,0,1,3-3.3926,8.5234,8.5234,0,0,1,4.6484-1.23,8.4432,8.4432,0,0,1,4.5117,1.1279,7.1347,7.1347,0,0,1,2.7686,3.17,11.3756,11.3756,0,0,1,.94,4.794v2.1879H26.4624v-3.47h9.6729v-.41a3.9779,3.9779,0,0,0-.3418-1.6919,2.5554,2.5554,0,0,0-1.0337-1.145,3.5082,3.5082,0,0,0-1.8033-.41,2.86,2.86,0,0,0-2.0336.7178,4.1411,4.1411,0,0,0-1.1192,1.9311,9.912,9.912,0,0,0-.3506,2.7515v.6665a5.5849,5.5849,0,0,0,.53,2.4956,3.9987,3.9987,0,0,0,1.521,1.6836,4.4974,4.4974,0,0,0,2.3926.6055,6.2314,6.2314,0,0,0,2.4609-.4864A4.8094,4.8094,0,0,0,38.3057,27.45l2.4951,2.8535a8.1345,8.1345,0,0,1-2.6914,2.29A9.0159,9.0159,0,0,1,33.5718,33.6355Z" transform="translate(-0.7935 -0.9109)"/><path d="M53.1567,18.5627h-10.92v-3.76h10.92ZM50.0293,10.24V27.5183a2.7591,2.7591,0,0,0,.1963,1.1621,1.0669,1.0669,0,0,0,.624.5635,3.1557,3.1557,0,0,0,1.06.1533q.4614,0,.82-.0332.359-.0351.6152-.0859l-.0171,3.8964a7.9637,7.9637,0,0,1-1.3755.3418,10.5143,10.5143,0,0,1-1.6665.1192,6.922,6.922,0,0,1-2.8794-.5547,3.943,3.943,0,0,1-1.88-1.7774,6.7479,6.7479,0,0,1-.6582-3.205V10.24Z" transform="translate(-0.7935 -0.9109)"/><path d="M65.6323,18.5627h-10.92v-3.76h10.92ZM62.5049,10.24V27.5183a2.7591,2.7591,0,0,0,.1963,1.1621,1.0666,1.0666,0,0,0,.624.5635,3.1557,3.1557,0,0,0,1.06.1533q.4614,0,.82-.0332.3588-.0351.6152-.0859l-.0171,3.8964a7.966,7.966,0,0,1-1.3755.3418,10.5152,10.5152,0,0,1-1.6665.1192,6.922,6.922,0,0,1-2.8794-.5547,3.9425,3.9425,0,0,1-1.88-1.7774,6.7479,6.7479,0,0,1-.6582-3.205V10.24Z" transform="translate(-0.7935 -0.9109)"/><path d="M75.835,27.8767l.7006,5.69-3.4863.24L66.4355,14.803H71.99ZM78.5693,14.803h5.52l-7.3833,21.26a12.5791,12.5791,0,0,1-.6494,1.4942,6.8865,6.8865,0,0,1-1.0849,1.5468,5.1321,5.1321,0,0,1-1.709,1.1973,6.19,6.19,0,0,1-2.521.4609q-.4789,0-.8286-.0351a4.92,4.92,0,0,1-.6753-.1094c-.2168-.0527-.4614-.1113-.7349-.18V36.5417c.125,0,.2534.002.3848.0078s.2529.0088.3672.0088a3.9167,3.9167,0,0,0,2.1191-.4443,2.7145,2.7145,0,0,0,1.0083-1.418l1.35-3.5381Z" transform="translate(-0.7935 -0.9109)"/><g id="Layer_2" data-name="Layer 2"><g id="Layer_1-2" data-name="Layer 1-2"><path d="M114.4027,18.83c-.0341-.0816-.0944-.0854-.1435-.1021-.53-.1824-1.0609-.3605-1.59-.5454q-.87-.3041-1.7366-.6189c-.3335-.1217-.6675-.2443-.9913-.39-.3356-.1507-.6632-.3216-.9874-.4971-.668-.3609-1.2937-.79-1.9219-1.2125-.1815-.1217-.3618-.2452-.5386-.3737a1.1278,1.1278,0,0,1-.4394-.6,1.6864,1.6864,0,0,1-.0675-.7465c.1012-.6484.2387-1.289.3664-1.9318q.7047-3.5362,1.4137-7.0718c.111-.5552.2178-1.1125.3344-1.6656a4.8834,4.8834,0,0,1,.3062-.9759,2.1662,2.1662,0,0,1,.4831-.73A1.5943,1.5943,0,0,1,109.999.912h1.5781a.7612.7612,0,0,1,.1431.0056,3.921,3.921,0,0,0,.6743.0359c.1427.0047.2853.02.4271.0294.0615.0039.1226.0086.1841.0094a3.2752,3.2752,0,0,1,.5924.0342,1.08,1.08,0,0,0,.2041.0073,2.8026,2.8026,0,0,1,.51.0311,1.381,1.381,0,0,0,.2456.01,2.2943,2.2943,0,0,1,.4894.0316,1.1624,1.1624,0,0,0,.1636.0094l.4485.0324c.02,0,.04.0043.061.0056.2588.0154.5177.0269.7761.047.2173.017.4339.0427.6508.0666.299.032.598.0615.8969.0978.3251.04.65.0854.9742.1281q.5276.073,1.0537.15.7294.1081,1.4581.22.86.1346,1.719.2751l2.9094.4817q1.2629.2136,2.5241.4314c.7867.1388,1.5721.2857,2.358.43.84.1538,1.6793.3063,2.52.463.5236.0978,1.0464.2016,1.5691.3041.9448.1858,1.8908.3677,2.8342.56.7961.1628,1.59.337,2.3845.5078q.922.1986,1.842.4015c.52.1158,1.0383.2375,1.5576.3562l1.8574.4271c.4728.1093.9443.2212,1.4167.3319l2.6113.6133c.2528.0593.5056.1183.758.1789q.7565.1829,1.5132.3673c.8828.2136,1.7669.4241,2.648.6406q2.537.6258,5.0722,1.2591c.6756.1687,1.3491.3472,2.0227.5258q1.4948.3958,2.99.7991,1.324.3591,2.648.732,1.2531.35,2.5036.7094,1.1911.3417,2.3789.697c.5172.1538,1.0327.3126,1.5482.4728q1.3107.4067,2.62.8187c.4173.1311.8324.267,1.2484.4019.5911.1922,1.183.3823,1.7724.5787q.7687.2563,1.5316.5241c.6188.2165,1.2385.4335,1.8531.6594q1.0678.3921,2.1282.8008,1.0712.4113,2.1355.838c.5262.21,1.0528.4215,1.5687.6551a7.8769,7.8769,0,0,1,.84.47,8.1947,8.1947,0,0,1,.9947.7205,1.884,1.884,0,0,1,.4271.4673,1.0243,1.0243,0,0,1,.1473.5044,4.1162,4.1162,0,0,1-.1452,1.236c-.19.6987-.3293,1.4094-.4813,2.1166-.1162.5407-.2409,1.08-.37,1.6179-.264,1.095-.5245,2.1909-.8029,3.2826-.2832,1.11-.5826,2.2209-.8824,3.3266a3.5116,3.5116,0,0,1-.4643,1.022,1.8282,1.8282,0,0,1-.3416.38.696.696,0,0,1-.5044.1917,1.955,1.955,0,0,1-.3652-.0363,1.1732,1.1732,0,0,0-1.2732.4489c-.3784.4574-.732.9353-1.1049,1.3974-.21.26-.4411.5019-.6538.7594-.2221.27-.4741.5095-.7193.7568-.3416.3417-.71.6577-1.0805.97-.3609.3041-.7261.6-1.1134.87q-.73.5065-1.485.9823a25.2269,25.2269,0,0,1-2.5673,1.3667c-.5125.2452-1.0357.46-1.555.6863-.7393.3221-1.4948.6078-2.2508.882-.6035.2178-1.2142.4177-1.8258.6116-.5979.19-1.2.3728-1.8057.54q-.9474.2627-1.9057.4877c-.9439.2234-1.8921.4271-2.8479.5941-.5851.1025-1.17.2058-1.7566.2989-.4241.0688-.8508.1243-1.2766.1837-.3784.0525-.7572.1042-1.1361.1516-.2912.0363-.5834.0641-.8746.0965-.1764.02-.3524.0428-.5284.062-.1968.0218-.3937.04-.59.06-.1426.0141-.2853.0273-.4271.0427q-.3258.0333-.6509.0683c-.0273.0026-.0542.0073-.0815.009-.2384.0158-.4767.0277-.7146.0474-.231.0188-.4612.0457-.6919.0679-.061.0055-.1225.006-.184.0107-.1085.0081-.217.0175-.3259.0269-.0474.0038-.0948.0119-.1427.0124a4.5957,4.5957,0,0,0-.49.0333c-.2776.029-.5578.0341-.8367.0508-.0952.006-.1905.0162-.2853.0252-.0273.0026-.0542.01-.0812.01a6.6094,6.6094,0,0,0-.6739.0427c-.1828.0176-.3669.0184-.551.0364-.3117.0307-.6261.0341-.94.0508-.1157.0064-.231.0183-.3468.0265-.0815.0055-.1631.0115-.2451.0132a3.69,3.69,0,0,0-.6334.0337,1.4977,1.4977,0,0,1-.2451.0077,4.699,4.699,0,0,0-.797.0355.9763.9763,0,0,1-.1841.0051h-4.1607c-.1085,0-.2174-.0162-.3259-.0243-.0751-.0052-.15-.0124-.2246-.0133-.1845-.0026-.369,0-.5552-.0034-.1282-.0034-.2563-.0192-.3874-.0269-.0952-.006-.1909-.01-.2862-.012a3.2989,3.2989,0,0,1-.6128-.0329.9445.9445,0,0,0-.1841-.0076,2.8021,2.8021,0,0,1-.551-.0334.8357.8357,0,0,0-.1635-.0077,2.6622,2.6622,0,0,1-.5309-.0333.8029.8029,0,0,0-.1632-.0077,2.48,2.48,0,0,1-.49-.0328,1.4452,1.4452,0,0,0-.1837-.009c-.1362-.0094-.272-.02-.4079-.03-.0136,0-.0269-.0039-.0405-.0047l-.7966-.0474c-.0679-.0043-.1358-.012-.2037-.0175l-.2648-.0227-.3058-.026c-.0406-.0035-.0811-.0094-.1221-.0133-.2917-.0256-.5839-.0521-.876-.0769-.2037-.017-.4079-.0307-.6116-.05-.1969-.0184-.3933-.0427-.59-.0628-.1559-.0171-.3118-.0363-.4672-.0551-.4335-.0525-.8675-.1012-1.3-.1584q-.9542-.1256-1.9066-.2618c-.3583-.0513-.7149-.1119-1.0724-.1709-.47-.0764-.9447-.1465-1.4145-.2327-.7389-.1359-1.4773-.2738-2.2123-.4271q-.9324-.196-1.8553-.4335c-.7808-.2-1.5589-.4105-2.3273-.6548-.618-.1964-1.2385-.3822-1.8561-.5859q-.7581-.2508-1.5059-.5335c-.5177-.1951-1.03-.4044-1.5414-.6141q-.427-.1755-.8427-.3742c-.5364-.2562-1.0677-.518-1.6033-.7785a22.0492,22.0492,0,0,1-2.0393-1.1353c-.5211-.3263-1.0387-.6581-1.5457-1.0053-.4787-.3276-.9481-.67-1.4094-1.0225-.3575-.2729-.6991-.5672-1.0412-.86q-.4046-.3461-.7906-.7116c-.3079-.29-.58-.615-.86-.9323-.2422-.2789-.4745-.565-.6881-.864a10.3787,10.3787,0,0,1-.8666-1.3889,9.9393,9.9393,0,0,1-.5817-1.3757,8.6286,8.6286,0,0,1-.3365-1.4551c-.03-.2088-.0286-.4228-.0615-.6312a3.1686,3.1686,0,0,1-.0278-.6125c.0064-.1836.0257-.3673.0483-.55.032-.2562.0662-.5125.11-.7687a7.2064,7.2064,0,0,1,.3062-1.1463,8.4832,8.4832,0,0,1,.3763-.8858,7.176,7.176,0,0,1,.4074-.7334c.2336-.3694.47-.7375.7286-1.09.23-.3126.4835-.6081.744-.8969a8.6721,8.6721,0,0,1,.6373-.6645c.3416-.305.6773-.6129,1.0412-.8914.4344-.3318.8785-.65,1.3355-.949.4856-.3173.9823-.6214,1.4709-.9314q.4421-.2785.8833-.5582.3023-.1927.6026-.3883C114.2981,18.9089,114.3459,18.8713,114.4027,18.83Zm59.4589,1.6626a.453.453,0,0,1,.1124-.0572,1.1492,1.1492,0,0,1,.2233.0043c.2366.032.4724.0713.709.105q.5267.0756,1.0541.1474c.2639.0354.5283.0662.7922.1s.5407.0718.8115.106c.2639.0337.5283.0649.7927.0965s.5424.061.8115.0948c.3788.0474.7572.1,1.1365.1469.3929.0478.7862.09,1.1792.1367.2844.0337.5684.0726.8541.1072.1423.0175.2849.0307.4271.0453.2375.0243.475.0486.7124.0713.1969.0183.3938.038.5911.0517.2721.0183.5446.0316.8166.0474.02,0,.0427.0055.0611.0072.1281.01.2563.0227.3874.0278a4.2308,4.2308,0,0,1,.43.0111,3.99,3.99,0,0,0,.5924.03h1.0677a1.0144,1.0144,0,0,0,.2046-.009,2.8,2.8,0,0,1,.5309-.0307,4.7838,4.7838,0,0,0,.5321-.012,4.5064,4.5064,0,0,1,.5309-.029c.1025,0,.205.0026.3071-.0043a.6929.6929,0,0,0,.1789-.038.1055.1055,0,0,0,.0628-.1345.2965.2965,0,0,0-.02-.0581,1.7561,1.7561,0,0,0-.7-.8064c-.3464-.2054-.7013-.3967-1.0528-.5928-.4835-.269-.964-.5428-1.4521-.8025-.5125-.2729-1.0306-.5343-1.5491-.7961a4.3827,4.3827,0,0,0-.47-.2041q-.8277-.3033-1.6584-.595-.9956-.35-1.9937-.6918c-.6654-.229-1.3308-.4579-1.9983-.68q-2.2269-.74-4.4563-1.4726c-.6833-.2242-1.3624-.4484-2.0453-.6671s-1.3667-.4369-2.0531-.6406q-1.0793-.323-2.1666-.62c-.8115-.2233-1.623-.436-2.4344-.6508q-1.1882-.3148-2.3781-.6249-1.1005-.2878-2.2016-.571-1.5581-.4011-3.1178-.8l-1.8463-.47q-.993-.2537-1.986-.5061-.9238-.234-1.8489-.4629-2.0188-.501-4.0382-.9986c-.8968-.2186-1.7937-.43-2.6906-.6427-.4583-.1089-.9166-.2187-1.3766-.3216-.92-.2059-1.8394-.4118-2.7611-.6095q-1.7938-.3844-3.5876-.7581c-1.025-.21-2.05-.4074-3.075-.609q-.6933-.1362-1.3877-.2682-1.449-.2755-2.8991-.5476-.9665-.1794-1.9355-.3459c-.6868-.117-1.3744-.2255-2.0616-.3387-.2832-.05-.5638-.1016-.8487-.1444q-1.174-.178-2.349-.3489-1.1151-.1635-2.2307-.3152c-.5475-.0752-1.0959-.1439-1.6438-.2161-.3994-.053-.7983-.1072-1.1959-.1589q-.7611-.0982-1.523-.193c-.1281-.0162-.2563-.0308-.3844-.0453-.2917-.032-.5834-.0623-.8747-.0961-.3186-.0363-.6363-.0764-.955-.1132-.1558-.0183-.3122-.0316-.47-.0487a7.8326,7.8326,0,0,0-1.02-.0721c-.15.003-.2989.0042-.4505,0a5.9348,5.9348,0,0,0-1.1007.0854,7.2608,7.2608,0,0,0-1.6524.47.9649.9649,0,0,0-.1606.0884.0778.0778,0,0,0-.0132.1091l.0009.0011a.3587.3587,0,0,0,.0542.0606,4.1136,4.1136,0,0,0,.9118.6189c.2644.1281.5207.2716.7795.41.4574.2439.9084.501,1.3833.712s.9533.4377,1.4338.65q.7688.3378,1.5461.656c.91.3733,1.8249.7342,2.75,1.0677.7192.26,1.4367.5262,2.1611.7713,1.5008.5083,3.0059,1.0041,4.5088,1.506a2.167,2.167,0,0,1,.2674.1025.6451.6451,0,0,1,.1623.12.1075.1075,0,0,1,.01.0918c-.0051.0171-.0449.035-.0666.0325a1.7871,1.7871,0,0,1-.2824-.0457c-.2037-.0568-.4053-.1226-.6073-.1862q-.8686-.2755-1.7378-.5527c-.8-.2563-1.6008-.51-2.399-.7726-1.1288-.3712-2.2563-.7466-3.37-1.1621-.5437-.2029-1.0886-.4036-1.63-.6138-.4582-.1776-.9131-.3643-1.3667-.5552-.3463-.1443-.69-.2955-1.0322-.4506-.3981-.1806-.7927-.3681-1.1882-.5552-.0619-.0286-.1222-.0615-.1819-.0939-.1081-.0586-.2136-.12-.3238-.1764-.363-.19-.7282-.3763-1.09-.5681-.2409-.1281-.4771-.2652-.7175-.395q-.1889-.1026-.3844-.1926a.174.174,0,0,0-.25.06.4532.4532,0,0,0-.0461.0679c-.0829.149-.1734.2947-.2447.4493a3.0227,3.0227,0,0,0-.1974.515c-.0828.331-.1512.6659-.21,1.002-.0854.4839-.1588.97-.2323,1.4559-.0636.4271-.1209.8512-.18,1.2771s-.1166.855-.1768,1.2808c-.05.3652-.1012.73-.1512,1.0951-.0376.2772-.076.5552-.11.8315-.035.2845-.0666.5693-.0965.8542-.0188.1828-.0226.3682-.05.55a3.088,3.088,0,0,0-.0295.47c0,.1909.003.3822,0,.5736a1.8684,1.8684,0,0,0,.0509.4851,3.0269,3.0269,0,0,0,.1832.6065,3.02,3.02,0,0,0,1.2761,1.3428c.3566.1862.7261.351,1.0908.5189.23.1051.4634.2016.6966.299.58.2408,1.157.4907,1.7434.7166.8542.3289,1.7126.6449,2.5728.9563.7577.2746,1.5175.5437,2.2815.8,1.7084.5748,3.4168,1.1531,5.14,1.6874q.5868.1824,1.1745.3617.7848.2378,1.57.47c.4382.1316.8755.2665,1.315.3934q1.2108.3494,2.4237.69,1.1532.3263,2.3063.647,1.4522.4016,2.9043.797c.8836.2387,1.7664.48,2.6539.703,1.4244.3579,2.8517.7042,4.2786,1.051.9426.2294,1.8869.451,2.83.677q1.1557.2772,2.3106.5578c.85.205,1.6994.4121,2.55.6158q.6177.1478,1.2386.2866.92.205,1.8416.4015c.7949.1708,1.5888.3442,2.3849.5082.91.1871,1.8211.3656,2.7334.5467q4.6929.9315,9.3858,1.8617c.3686.073.7376.1443,1.107.2114q1.1185.2025,2.238.4c.6406.1136,1.277.23,1.9163.3391q1.313.2238,2.6266.4373c.4647.0761.93.15,1.3962.2179.54.0785,1.0818.149,1.623.2225.3784.0512.7572.1029,1.136.152q.5377.07,1.0763.1341c.3318.04.6641.076.9964.1128q.2742.03.5492.0572c.2238.0218.4476.0453.6719.0636.231.0193.4642.021.6936.0521a4.49,4.49,0,0,0,.5714.0317,1.0112,1.0112,0,0,1,.1841.0051,4.8623,4.8623,0,0,0,.8179.0359,1.455,1.455,0,0,1,.2451.01,2.695,2.695,0,0,0,.49.03,3.4664,3.4664,0,0,1,.6129.032.8785.8785,0,0,0,.2238-.0085c.061-.0047.1217-.0192.1828-.0214a1.8021,1.8021,0,0,0,.5774-.1281,3.4456,3.4456,0,0,0,1.2283-.7923,1.8442,1.8442,0,0,0,.4963-.88c.0854-.3519.1589-.7064.2456-1.0579q.6257-2.5365,1.256-5.0713c.0782-.3181.1478-.6406.2136-.96.14-.6961.2746-1.3936.4113-2.09.02-.1007.0427-.2007.0572-.3019a.1457.1457,0,0,0-.1082-.1753l-.02-.0032a1.188,1.188,0,0,0-.1837-.0124,3.8537,3.8537,0,0,1-.45-.0111,3.8773,3.8773,0,0,0-.5309-.03h-.6765c-.0816,0-.1632-.01-.2447-.0158-.1021-.0073-.2038-.0209-.3058-.0218-.4374-.003-.8747,0-1.3116-.003-.0752,0-.15-.0042-.2251-.0089-.1431-.0094-.2853-.0222-.4271-.03-.2857-.017-.5719-.032-.8576-.0478a.5124.5124,0,0,1-.0611-.009c-.0948-.0089-.19-.0175-.2849-.0256-.21-.0175-.4219-.03-.6321-.0534-.2844-.0311-.5684-.0687-.8541-.1067-.4468-.0594-.8935-.1166-1.339-.1828-.5125-.0761-1.025-.1585-1.5375-.2418q-1.1724-.1908-2.3443-.3865c-.3366-.0559-.6727-.1174-1.0092-.1734-.8487-.1414-1.6977-.2806-2.5464-.4232a.5075.5075,0,0,1-.243-.0855Z" transform="translate(-0.7935 -0.9109)"/><path class="cls-1" d="M173.8616,20.4929a.5068.5068,0,0,0,.2443.0833c.8487.1427,1.6977.2819,2.5464.4233.3365.0559.6726.1174,1.0092.1734q1.1715.1947,2.3443.3865c.5125.0833,1.025.1657,1.5375.2417.4455.0662.8922.1235,1.3389.1828.2841.038.5681.0756.8542.1068.21.0235.4216.0359.6321.0534.0948.0081.19.0166.2849.0256.02,0,.0427.0077.0611.009.2857.0158.5719.0307.8576.0478.1431.0081.2853.0209.4271.03.0747.0047.15.009.225.009.437,0,.8743,0,1.3116.003.1021,0,.2038.0145.3058.0218.0816.006.1632.0149.2448.0158.2255.0025.451,0,.6765,0a3.8931,3.8931,0,0,1,.5309.0294,3.8249,3.8249,0,0,0,.45.0111,1.2006,1.2006,0,0,1,.1837.0124.1457.1457,0,0,1,.1314.1586l-.0033.02c-.0145.1012-.0376.2011-.0572.3019-.1367.6966-.2712,1.394-.4113,2.09-.0649.3212-.1346.6406-.2136.96q-.6252,2.5381-1.2573,5.073c-.0855.3515-.1611.706-.2456,1.0579a1.8451,1.8451,0,0,1-.4963.88,3.4462,3.4462,0,0,1-1.2283.7948,1.8049,1.8049,0,0,1-.5774.1282c-.0611,0-.1218.0166-.1828.0213a.8786.8786,0,0,1-.2238.0086,3.4665,3.4665,0,0,0-.6129-.0321,2.6861,2.6861,0,0,1-.49-.03,1.4656,1.4656,0,0,0-.2451-.01,4.8518,4.8518,0,0,1-.8179-.0359,1.0112,1.0112,0,0,0-.1841-.0051,4.49,4.49,0,0,1-.5714-.0316c-.2294-.0312-.4626-.0329-.6936-.0521-.2243-.0184-.4481-.0427-.6719-.0637q-.275-.0278-.5492-.0572c-.3323-.0367-.6646-.073-.9964-.1127q-.5382-.0642-1.0763-.1342c-.3788-.0491-.7576-.1007-1.136-.152-.5412-.0735-1.0827-.1439-1.623-.2225-.4659-.0675-.9315-.1418-1.3962-.2178q-1.3137-.2136-2.6266-.4374c-.6406-.1089-1.2774-.2255-1.9163-.3391q-1.119-.199-2.238-.4c-.3694-.067-.7384-.1383-1.107-.2114q-4.6933-.93-9.3858-1.8617c-.9114-.1811-1.8228-.36-2.7334-.5467-.7961-.164-1.59-.3374-2.3849-.5082q-.9212-.1977-1.8416-.4015-.62-.1374-1.2386-.2865c-.85-.2038-1.7-.4109-2.55-.6159q-1.1532-.2793-2.3106-.5578c-.943-.2259-1.8873-.4476-2.83-.6769-1.4269-.3468-2.8542-.6932-4.2786-1.0511-.8875-.2234-1.77-.4643-2.6539-.703q-1.4521-.3933-2.9043-.7969-1.1531-.32-2.3063-.6471-1.2129-.3417-2.4237-.69c-.4395-.1281-.8768-.2618-1.315-.3933q-.7848-.2352-1.57-.47-.5881-.1782-1.1745-.3618c-1.7221-.536-3.4308-1.1125-5.14-1.6874-.764-.2563-1.5238-.5258-2.2815-.8-.86-.3113-1.719-.6274-2.5728-.9562-.5864-.226-1.163-.4758-1.7434-.7167-.2332-.097-.4668-.1935-.6966-.299-.366-.1678-.7341-.3327-1.0908-.5189a3.02,3.02,0,0,1-1.2761-1.3428,3.0279,3.0279,0,0,1-.1832-.6064,1.8638,1.8638,0,0,1-.0517-.4873c.0038-.1914,0-.3844,0-.5736a3.0879,3.0879,0,0,1,.0294-.47c.0278-.1815.0317-.3669.05-.55.03-.2849.0615-.57.0966-.8542.0337-.2776.0721-.5552.11-.8315.05-.3652.1012-.73.1512-1.0951q.0885-.6406.1764-1.2774c.0589-.4271.1162-.8521.18-1.277.0735-.4861.1474-.9721.2324-1.456.0585-.3361.1281-.671.21-1.002a3.0255,3.0255,0,0,1,.1981-.515c.0713-.1546.1619-.299.2447-.4493a.4614.4614,0,0,1,.0462-.0679.1736.1736,0,0,1,.25-.06q.1958.09.3844.1926c.2405.1281.4767.2669.7175.3951.3618.1917.7261.3779,1.09.568.1089.0568.2135.1179.3237.1764.06.0324.12.0653.182.0939.3955.1854.79.3729,1.1881.5553.3417.155.6859.3062,1.0323.45.454.19.9089.3763,1.3667.5553.5411.21,1.0861.4108,1.63.6137,1.1138.4156,2.2414.791,3.37,1.1621.7982.2627,1.599.5164,2.399.7726q.8687.2781,1.7378.5527c.202.0636.4036.1281.6073.1862a1.7726,1.7726,0,0,0,.2823.0457c.0218.0025.0615-.0154.0667-.0325a.1073.1073,0,0,0-.01-.0918.6416.6416,0,0,0-.1623-.12,2.1594,2.1594,0,0,0-.2673-.1025c-1.503-.5018-3.008-.9977-4.5088-1.5059-.7261-.2452-1.4419-.5125-2.1611-.7714-.9251-.334-1.84-.6948-2.75-1.0677q-.7768-.3216-1.5456-.6594c-.4809-.2136-.955-.4395-1.4355-.6526s-.9259-.47-1.3833-.712c-.2588-.1384-.5151-.2823-.7795-.41a4.1169,4.1169,0,0,1-.9114-.6189.3631.3631,0,0,1-.0542-.0606.0777.0777,0,0,1,.0113-.1093l.0011-.0009a.964.964,0,0,1,.16-.0884,7.2653,7.2653,0,0,1,1.6525-.47,5.9338,5.9338,0,0,1,1.1006-.0854c.15.0047.2989.0034.4506,0a7.8276,7.8276,0,0,1,1.02.0722c.1559.017.3122.03.47.0486.3186.0368.6363.0769.9549.1132.2913.0338.583.0641.8747.0961.1282.0145.2563.0291.3844.0453q.7615.0961,1.523.193c.3989.0517.7978.106,1.1959.1589.5479.0722,1.0963.141,1.6439.2161q1.1167.1546,2.2315.3169,1.1749.1709,2.349.349c.2836.0427.5655.0952.8487.1418.6871.1131,1.3748.2216,2.0615.3386q.9687.1662,1.9356.346,1.4522.27,2.8991.5475.6945.132,1.3876.2682c1.0251.2016,2.05.3989,3.0751.6091q1.7964.369,3.5876.7581c.9216.1977,1.8412.4036,2.7611.6094.46.1029.9183.2136,1.3765.3216.8969.2136,1.7938.4241,2.6907.6428q2.02.4945,4.0382.9985.925.2293,1.8489.463.9933.2511,1.9859.5061l1.8464.47,3.1177.8q1.1015.2841,2.2017.5711,1.1891.31,2.378.6248c.8115.2136,1.623.4271,2.4345.6509q1.0865.299,2.1666.62c.6868.2055,1.37.4237,2.053.6407s1.3642.4429,2.0454.6671q2.2286.7345,4.4563,1.4726c.6675.2217,1.3329.4506,1.9983.68s1.33.4583,1.9937.6919q.8307.2921,1.6584.5949a4.3921,4.3921,0,0,1,.47.2042c.5185.2618,1.037.5232,1.5491.7961.4877.26.9682.5334,1.4521.8025.3515.196.7064.3874,1.0527.5928a1.7605,1.7605,0,0,1,.7.8063.2988.2988,0,0,1,.02.0581.1056.1056,0,0,1-.0628.1346.6938.6938,0,0,1-.1789.038c-.1021.0068-.2046.0038-.3071.0042a4.5269,4.5269,0,0,0-.5309.0291,4.69,4.69,0,0,1-.5321.0119,2.767,2.767,0,0,0-.5309.0308,1.03,1.03,0,0,1-.2046.009h-1.0677a3.989,3.989,0,0,1-.5924-.03,4.232,4.232,0,0,0-.43-.0111c-.1281-.0051-.2562-.0179-.3873-.0277-.02,0-.0427-.006-.0611-.0073-.2721-.0158-.5446-.029-.8166-.0474-.1973-.0137-.3942-.0333-.5911-.0517-.2375-.0226-.4749-.047-.7124-.0713-.1426-.0145-.2853-.0278-.4271-.0453-.284-.0346-.568-.0734-.8542-.1072-.3929-.0469-.7862-.0888-1.1792-.1366-.3792-.0466-.7576-.1-1.1365-.147-.2707-.0337-.5424-.0627-.8114-.0948s-.5288-.0628-.7927-.0965c-.2708-.0342-.5412-.0713-.8115-.1059s-.5283-.0645-.7923-.1q-.5274-.0713-1.054-.1473c-.2366-.0337-.4724-.073-.709-.1051a1.1422,1.1422,0,0,0-.2234-.0042A.685.685,0,0,0,173.8616,20.4929ZM130.4264,10.2508c-.0671.0082-.1149.01-.1615.02a.1169.1169,0,0,0-.0939.097.1036.1036,0,0,0,.0427.1072,1.013,1.013,0,0,0,.3152.1862c.15.0427.2989.09.4514.1337q.9947.2819,1.99.5624.8867.2487,1.7755.4916c.3416.094.6833.185,1.0284.2764.1055.0281.2136.0529.3182.0781a.2038.2038,0,0,0,.1909-.0478c.0854-.0773.0952-.1687-.0162-.23a2.09,2.09,0,0,0-.4562-.18l-2.4451-.6834q-1.36-.3818-2.72-.7653c-.0769-.0231-.1584-.0316-.2208-.0462Zm-.7158.1158a.2157.2157,0,0,0-.0223-.0671.6464.6464,0,0,0-.1-.1,2.79,2.79,0,0,0-1.2813-.55c-.08-.0124-.1635-.01-.243-.0273a.6645.6645,0,0,0-.4.0358c-.06.024-.15.0269-.1439.1162.0047.0735.0854.076.1405.0978l.02.0056q.9336.26,1.87.5159a.2775.2775,0,0,0,.0995.0141c.0218-.003.041-.0269.06-.041Z" transform="translate(-0.7935 -0.9109)"/><path d="M130.4255,10.2508c.0624.0124.1439.0231.2221.0453q1.36.381,2.72.7654l2.4451.6833a2.0953,2.0953,0,0,1,.4562.18c.1114.0615.1029.1529.0162.23a.2039.2039,0,0,1-.1909.0479c-.1064-.0252-.2136-.05-.3182-.0782-.3417-.0914-.6859-.1824-1.0284-.2763q-.888-.2435-1.7755-.4916-.9959-.2793-1.99-.5625c-.1508-.0427-.3011-.0893-.4515-.1337a1.0117,1.0117,0,0,1-.3151-.1862.1038.1038,0,0,1-.0428-.1072.117.117,0,0,1,.094-.0969C130.3106,10.2611,130.3585,10.259,130.4255,10.2508Z" transform="translate(-0.7935 -0.9109)"/><path d="M129.71,10.3666c-.0192.0141-.0384.038-.06.04a.2753.2753,0,0,1-.0995-.0141q-.9354-.2562-1.87-.515l-.02-.0056c-.0551-.0218-.1358-.0243-.1405-.0978-.006-.0893.0854-.0922.1439-.1162a.6645.6645,0,0,1,.4-.0358c.0794.0175.1627.0149.243.0273a2.79,2.79,0,0,1,1.2813.55.6553.6553,0,0,1,.1.1A.2174.2174,0,0,1,129.71,10.3666Z" transform="translate(-0.7935 -0.9109)"/></g></g></svg>