<svg xmlns="http://www.w3.org/2000/svg" version="1.1" width="372" height="235">
<path d="M 2.878906 104.319336 L 2.878906 97.412109 L 6.729980 97.412109 L 6.729980 98.335938 L 3.738281 98.335938 L 3.738281 104.319336 Z " fill="rgb(0, 0, 0)" fill-opacity="1.000000" />
<path d="M 2.878906 117.319336 L 2.878906 103.300781 L 3.738281 103.300781 L 3.738281 117.319336 Z " fill="rgb(0, 0, 0)" fill-opacity="1.000000" />
<path d="M 2.878906 130.319336 L 2.878906 116.300781 L 3.738281 116.300781 L 3.738281 130.319336 Z " fill="rgb(0, 0, 0)" fill-opacity="1.000000" />
<path d="M 2.878906 143.319336 L 2.878906 129.300781 L 3.738281 129.300781 L 3.738281 143.319336 Z " fill="rgb(0, 0, 0)" fill-opacity="1.000000" />
<path d="M 2.878906 156.319336 L 2.878906 142.300781 L 3.738281 142.300781 L 3.738281 156.319336 Z " fill="rgb(0, 0, 0)" fill-opacity="1.000000" />
<path d="M 2.878906 169.319336 L 2.878906 155.300781 L 3.738281 155.300781 L 3.738281 169.319336 Z " fill="rgb(0, 0, 0)" fill-opacity="1.000000" />
<path d="M 2.878906 182.319336 L 2.878906 168.300781 L 3.738281 168.300781 L 3.738281 182.319336 Z " fill="rgb(0, 0, 0)" fill-opacity="1.000000" />
<path d="M 2.878906 195.319336 L 2.878906 181.300781 L 3.738281 181.300781 L 3.738281 195.319336 Z " fill="rgb(0, 0, 0)" fill-opacity="1.000000" />
<path d="M 2.878906 208.319336 L 2.878906 194.300781 L 3.738281 194.300781 L 3.738281 208.319336 Z " fill="rgb(0, 0, 0)" fill-opacity="1.000000" />
<path d="M 2.878906 221.319336 L 2.878906 207.300781 L 3.738281 207.300781 L 3.738281 221.319336 Z " fill="rgb(0, 0, 0)" fill-opacity="1.000000" />
<path d="M 2.878906 228.335938 L 2.878906 220.300781 L 3.738281 220.300781 L 3.738281 227.412109 L 6.729980 227.412109 L 6.729980 228.335938 Z " fill="rgb(0, 0, 0)" fill-opacity="1.000000" />
<path d="M 6.892578 228.335938 L 6.892578 227.412109 L 13.729980 227.412109 L 13.729980 228.335938 Z " fill="rgb(0, 0, 0)" fill-opacity="1.000000" />
<path d="M 13.892578 228.335938 L 13.892578 227.412109 L 20.729980 227.412109 L 20.729980 228.335938 Z " fill="rgb(0, 0, 0)" fill-opacity="1.000000" />
<path d="M 20.892578 228.335938 L 20.892578 227.412109 L 27.729980 227.412109 L 27.729980 228.335938 Z " fill="rgb(0, 0, 0)" fill-opacity="1.000000" />
<path d="M 27.892578 228.335938 L 27.892578 227.412109 L 34.729980 227.412109 L 34.729980 228.335938 Z " fill="rgb(0, 0, 0)" fill-opacity="1.000000" />
<path d="M 34.892578 228.335938 L 34.892578 227.412109 L 41.729980 227.412109 L 41.729980 228.335938 Z " fill="rgb(0, 0, 0)" fill-opacity="1.000000" />
<path d="M 41.892578 228.335938 L 41.892578 227.412109 L 48.729980 227.412109 L 48.729980 228.335938 Z " fill="rgb(0, 0, 0)" fill-opacity="1.000000" />
<path d="M 48.892578 228.335938 L 48.892578 227.412109 L 55.729980 227.412109 L 55.729980 228.335938 Z " fill="rgb(0, 0, 0)" fill-opacity="1.000000" />
<path d="M 55.892578 228.335938 L 55.892578 227.412109 L 62.729980 227.412109 L 62.729980 228.335938 Z " fill="rgb(0, 0, 0)" fill-opacity="1.000000" />
<path d="M 62.892578 228.335938 L 62.892578 227.412109 L 69.729980 227.412109 L 69.729980 228.335938 Z " fill="rgb(0, 0, 0)" fill-opacity="1.000000" />
<path d="M 69.892578 228.335938 L 69.892578 227.412109 L 76.729980 227.412109 L 76.729980 228.335938 Z " fill="rgb(0, 0, 0)" fill-opacity="1.000000" />
<path d="M 76.892578 228.335938 L 76.892578 227.412109 L 83.729980 227.412109 L 83.729980 228.335938 Z " fill="rgb(0, 0, 0)" fill-opacity="1.000000" />
<path d="M 83.892578 228.335938 L 83.892578 227.412109 L 90.729980 227.412109 L 90.729980 228.335938 Z " fill="rgb(0, 0, 0)" fill-opacity="1.000000" />
<path d="M 90.892578 228.335938 L 90.892578 227.412109 L 97.729980 227.412109 L 97.729980 228.335938 Z " fill="rgb(0, 0, 0)" fill-opacity="1.000000" />
<path d="M 97.892578 228.335938 L 97.892578 227.412109 L 104.729980 227.412109 L 104.729980 228.335938 Z " fill="rgb(0, 0, 0)" fill-opacity="1.000000" />
<path d="M 104.892578 228.335938 L 104.892578 227.412109 L 111.729980 227.412109 L 111.729980 228.335938 Z " fill="rgb(0, 0, 0)" fill-opacity="1.000000" />
<path d="M 111.892578 228.335938 L 111.892578 227.412109 L 118.729980 227.412109 L 118.729980 228.335938 Z " fill="rgb(0, 0, 0)" fill-opacity="1.000000" />
<path d="M 118.892578 228.335938 L 118.892578 227.412109 L 125.729980 227.412109 L 125.729980 228.335938 Z " fill="rgb(0, 0, 0)" fill-opacity="1.000000" />
<path d="M 125.892578 228.335938 L 125.892578 227.412109 L 132.729980 227.412109 L 132.729980 228.335938 Z " fill="rgb(0, 0, 0)" fill-opacity="1.000000" />
<path d="M 132.892578 228.335938 L 132.892578 227.412109 L 139.729980 227.412109 L 139.729980 228.335938 Z " fill="rgb(0, 0, 0)" fill-opacity="1.000000" />
<path d="M 139.892578 228.335938 L 139.892578 227.412109 L 146.729980 227.412109 L 146.729980 228.335938 Z " fill="rgb(0, 0, 0)" fill-opacity="1.000000" />
<path d="M 146.892578 228.335938 L 146.892578 227.412109 L 153.729980 227.412109 L 153.729980 228.335938 Z " fill="rgb(0, 0, 0)" fill-opacity="1.000000" />
<path d="M 153.892578 228.335938 L 153.892578 227.412109 L 160.729980 227.412109 L 160.729980 228.335938 Z " fill="rgb(0, 0, 0)" fill-opacity="1.000000" />
<path d="M 160.892578 228.335938 L 160.892578 227.412109 L 167.729980 227.412109 L 167.729980 228.335938 Z " fill="rgb(0, 0, 0)" fill-opacity="1.000000" />
<path d="M 167.892578 228.335938 L 167.892578 227.412109 L 174.729980 227.412109 L 174.729980 228.335938 Z " fill="rgb(0, 0, 0)" fill-opacity="1.000000" />
<path d="M 174.892578 228.335938 L 174.892578 227.412109 L 181.729980 227.412109 L 181.729980 228.335938 Z " fill="rgb(0, 0, 0)" fill-opacity="1.000000" />
<path d="M 181.892578 228.335938 L 181.892578 227.412109 L 188.729980 227.412109 L 188.729980 228.335938 Z " fill="rgb(0, 0, 0)" fill-opacity="1.000000" />
<path d="M 188.892578 228.335938 L 188.892578 227.412109 L 195.729980 227.412109 L 195.729980 228.335938 Z " fill="rgb(0, 0, 0)" fill-opacity="1.000000" />
<path d="M 195.892578 228.335938 L 195.892578 227.412109 L 202.729980 227.412109 L 202.729980 228.335938 Z " fill="rgb(0, 0, 0)" fill-opacity="1.000000" />
<path d="M 202.892578 228.335938 L 202.892578 227.412109 L 209.729980 227.412109 L 209.729980 228.335938 Z " fill="rgb(0, 0, 0)" fill-opacity="1.000000" />
<path d="M 209.892578 228.335938 L 209.892578 227.412109 L 216.729980 227.412109 L 216.729980 228.335938 Z " fill="rgb(0, 0, 0)" fill-opacity="1.000000" />
<path d="M 216.892578 228.335938 L 216.892578 227.412109 L 223.729980 227.412109 L 223.729980 228.335938 Z " fill="rgb(0, 0, 0)" fill-opacity="1.000000" />
<path d="M 223.892578 228.335938 L 223.892578 227.412109 L 230.729980 227.412109 L 230.729980 228.335938 Z " fill="rgb(0, 0, 0)" fill-opacity="1.000000" />
<path d="M 230.892578 228.335938 L 230.892578 227.412109 L 237.729980 227.412109 L 237.729980 228.335938 Z " fill="rgb(0, 0, 0)" fill-opacity="1.000000" />
<path d="M 237.892578 228.335938 L 237.892578 227.412109 L 244.729980 227.412109 L 244.729980 228.335938 Z " fill="rgb(0, 0, 0)" fill-opacity="1.000000" />
<path d="M 244.892578 228.335938 L 244.892578 227.412109 L 251.729980 227.412109 L 251.729980 228.335938 Z " fill="rgb(0, 0, 0)" fill-opacity="1.000000" />
<path d="M 251.892578 228.335938 L 251.892578 227.412109 L 258.729980 227.412109 L 258.729980 228.335938 Z " fill="rgb(0, 0, 0)" fill-opacity="1.000000" />
<path d="M 258.892578 228.335938 L 258.892578 227.412109 L 265.729980 227.412109 L 265.729980 228.335938 Z " fill="rgb(0, 0, 0)" fill-opacity="1.000000" />
<path d="M 265.892578 228.335938 L 265.892578 227.412109 L 272.729980 227.412109 L 272.729980 228.335938 Z " fill="rgb(0, 0, 0)" fill-opacity="1.000000" />
<path d="M 272.892578 228.335938 L 272.892578 227.412109 L 279.729980 227.412109 L 279.729980 228.335938 Z " fill="rgb(0, 0, 0)" fill-opacity="1.000000" />
<path d="M 279.892578 228.335938 L 279.892578 227.412109 L 286.729980 227.412109 L 286.729980 228.335938 Z " fill="rgb(0, 0, 0)" fill-opacity="1.000000" />
<path d="M 286.892578 228.335938 L 286.892578 227.412109 L 293.729980 227.412109 L 293.729980 228.335938 Z " fill="rgb(0, 0, 0)" fill-opacity="1.000000" />
<path d="M 293.892578 228.335938 L 293.892578 227.412109 L 300.729980 227.412109 L 300.729980 228.335938 Z " fill="rgb(0, 0, 0)" fill-opacity="1.000000" />
<path d="M 300.892578 228.335938 L 300.892578 227.412109 L 307.729980 227.412109 L 307.729980 228.335938 Z " fill="rgb(0, 0, 0)" fill-opacity="1.000000" />
<path d="M 307.892578 228.335938 L 307.892578 227.412109 L 314.729980 227.412109 L 314.729980 228.335938 Z " fill="rgb(0, 0, 0)" fill-opacity="1.000000" />
<path d="M 314.892578 228.335938 L 314.892578 227.412109 L 321.729980 227.412109 L 321.729980 228.335938 Z " fill="rgb(0, 0, 0)" fill-opacity="1.000000" />
<path d="M 321.892578 228.335938 L 321.892578 227.412109 L 328.729980 227.412109 L 328.729980 228.335938 Z " fill="rgb(0, 0, 0)" fill-opacity="1.000000" />
<path d="M 328.892578 228.335938 L 328.892578 227.412109 L 335.729980 227.412109 L 335.729980 228.335938 Z " fill="rgb(0, 0, 0)" fill-opacity="1.000000" />
<path d="M 335.892578 228.335938 L 335.892578 227.412109 L 342.729980 227.412109 L 342.729980 228.335938 Z " fill="rgb(0, 0, 0)" fill-opacity="1.000000" />
<path d="M 342.892578 228.335938 L 342.892578 227.412109 L 349.729980 227.412109 L 349.729980 228.335938 Z " fill="rgb(0, 0, 0)" fill-opacity="1.000000" />
<path d="M 349.892578 228.335938 L 349.892578 227.412109 L 356.729980 227.412109 L 356.729980 228.335938 Z " fill="rgb(0, 0, 0)" fill-opacity="1.000000" />
<path d="M 356.892578 228.335938 L 356.892578 227.412109 L 363.729980 227.412109 L 363.729980 228.335938 Z " fill="rgb(0, 0, 0)" fill-opacity="1.000000" />
<path d="M 363.892578 228.335938 L 363.892578 227.412109 L 370.729980 227.412109 L 370.729980 228.335938 Z " fill="rgb(0, 0, 0)" fill-opacity="1.000000" />
<path d="M 23.878906 143.319336 L 23.878906 136.412109 L 27.729980 136.412109 L 27.729980 137.335938 L 24.738281 137.335938 L 24.738281 143.319336 Z " fill="rgb(0, 0, 0)" fill-opacity="1.000000" />
<path d="M 23.878906 156.319336 L 23.878906 142.300781 L 24.738281 142.300781 L 24.738281 156.319336 Z " fill="rgb(0, 0, 0)" fill-opacity="1.000000" />
<path d="M 23.878906 169.319336 L 23.878906 155.300781 L 24.738281 155.300781 L 24.738281 169.319336 Z " fill="rgb(0, 0, 0)" fill-opacity="1.000000" />
<path d="M 23.878906 182.319336 L 23.878906 168.300781 L 24.738281 168.300781 L 24.738281 182.319336 Z " fill="rgb(0, 0, 0)" fill-opacity="1.000000" />
<path d="M 23.878906 189.335938 L 23.878906 181.300781 L 24.738281 181.300781 L 24.738281 188.412109 L 27.729980 188.412109 L 27.729980 189.335938 Z " fill="rgb(0, 0, 0)" fill-opacity="1.000000" />
<path d="M 240.878906 208.319336 L 240.878906 194.300781 L 241.738281 194.300781 L 241.738281 208.319336 Z " fill="rgb(0, 0, 0)" fill-opacity="1.000000" />
<path d="M 240.878906 215.335938 L 240.878906 207.300781 L 241.738281 207.300781 L 241.738281 214.412109 L 244.729980 214.412109 L 244.729980 215.335938 Z " fill="rgb(0, 0, 0)" fill-opacity="1.000000" />
<path d="M 244.892578 215.335938 L 244.892578 214.412109 L 251.729980 214.412109 L 251.729980 215.335938 Z " fill="rgb(0, 0, 0)" fill-opacity="1.000000" />
<path d="M 251.892578 215.335938 L 251.892578 214.412109 L 258.729980 214.412109 L 258.729980 215.335938 Z " fill="rgb(0, 0, 0)" fill-opacity="1.000000" />
<path d="M 258.892578 215.335938 L 258.892578 214.412109 L 265.729980 214.412109 L 265.729980 215.335938 Z " fill="rgb(0, 0, 0)" fill-opacity="1.000000" />
<path d="M 265.892578 215.335938 L 265.892578 214.412109 L 272.729980 214.412109 L 272.729980 215.335938 Z " fill="rgb(0, 0, 0)" fill-opacity="1.000000" />
<path d="M 272.892578 215.335938 L 272.892578 214.412109 L 279.729980 214.412109 L 279.729980 215.335938 Z " fill="rgb(0, 0, 0)" fill-opacity="1.000000" />
<path d="M 279.892578 215.335938 L 279.892578 214.412109 L 286.729980 214.412109 L 286.729980 215.335938 Z " fill="rgb(0, 0, 0)" fill-opacity="1.000000" />
<path d="M 286.892578 215.335938 L 286.892578 214.412109 L 293.729980 214.412109 L 293.729980 215.335938 Z " fill="rgb(0, 0, 0)" fill-opacity="1.000000" />
<path d="M 293.892578 215.335938 L 293.892578 214.412109 L 300.729980 214.412109 L 300.729980 215.335938 Z " fill="rgb(0, 0, 0)" fill-opacity="1.000000" />
<path d="M 300.892578 215.335938 L 300.892578 214.412109 L 307.729980 214.412109 L 307.729980 215.335938 Z " fill="rgb(0, 0, 0)" fill-opacity="1.000000" />
<path d="M 307.892578 215.335938 L 307.892578 214.412109 L 314.729980 214.412109 L 314.729980 215.335938 Z " fill="rgb(0, 0, 0)" fill-opacity="1.000000" />
<path d="M 314.892578 215.335938 L 314.892578 214.412109 L 321.729980 214.412109 L 321.729980 215.335938 Z " fill="rgb(0, 0, 0)" fill-opacity="1.000000" />
<path d="M 321.892578 215.335938 L 321.892578 214.412109 L 328.729980 214.412109 L 328.729980 215.335938 Z " fill="rgb(0, 0, 0)" fill-opacity="1.000000" />
<path d="M 328.892578 215.335938 L 328.892578 214.412109 L 335.729980 214.412109 L 335.729980 215.335938 Z " fill="rgb(0, 0, 0)" fill-opacity="1.000000" />
<path d="M 335.892578 215.335938 L 335.892578 214.412109 L 342.729980 214.412109 L 342.729980 215.335938 Z " fill="rgb(0, 0, 0)" fill-opacity="1.000000" />
<path d="M 342.892578 215.335938 L 342.892578 214.412109 L 345.878906 214.412109 L 345.878906 207.300781 L 346.738281 207.300781 L 346.738281 215.335938 Z " fill="rgb(0, 0, 0)" fill-opacity="1.000000" />
<path d="M 363.414551 221.319336 L 370.251953 207.300781 L 371.208008 207.300781 L 364.370605 221.319336 Z " fill="rgb(0, 0, 0)" fill-opacity="1.000000" />
<path d="M 345.878906 208.319336 L 345.878906 194.300781 L 346.738281 194.300781 L 346.738281 208.319336 Z " fill="rgb(0, 0, 0)" fill-opacity="1.000000" />
<path d="M 363.414551 208.319336 L 370.251953 194.300781 L 371.208008 194.300781 L 364.370605 208.319336 Z " fill="rgb(0, 0, 0)" fill-opacity="1.000000" />
<path d="M 27.892578 189.335938 L 27.892578 188.412109 L 34.729980 188.412109 L 34.729980 189.335938 Z " fill="rgb(0, 0, 0)" fill-opacity="1.000000" />
<path d="M 34.892578 189.335938 L 34.892578 188.412109 L 41.729980 188.412109 L 41.729980 189.335938 Z " fill="rgb(0, 0, 0)" fill-opacity="1.000000" />
<path d="M 41.892578 189.335938 L 41.892578 188.412109 L 48.729980 188.412109 L 48.729980 189.335938 Z " fill="rgb(0, 0, 0)" fill-opacity="1.000000" />
<path d="M 48.892578 189.335938 L 48.892578 188.412109 L 55.729980 188.412109 L 55.729980 189.335938 Z " fill="rgb(0, 0, 0)" fill-opacity="1.000000" />
<path d="M 55.892578 189.335938 L 55.892578 188.412109 L 62.729980 188.412109 L 62.729980 189.335938 Z " fill="rgb(0, 0, 0)" fill-opacity="1.000000" />
<path d="M 62.892578 189.335938 L 62.892578 188.412109 L 69.729980 188.412109 L 69.729980 189.335938 Z " fill="rgb(0, 0, 0)" fill-opacity="1.000000" />
<path d="M 69.892578 189.335938 L 69.892578 188.412109 L 76.729980 188.412109 L 76.729980 189.335938 Z " fill="rgb(0, 0, 0)" fill-opacity="1.000000" />
<path d="M 76.892578 189.335938 L 76.892578 188.412109 L 83.729980 188.412109 L 83.729980 189.335938 Z " fill="rgb(0, 0, 0)" fill-opacity="1.000000" />
<path d="M 83.892578 189.335938 L 83.892578 188.412109 L 90.729980 188.412109 L 90.729980 189.335938 Z " fill="rgb(0, 0, 0)" fill-opacity="1.000000" />
<path d="M 90.892578 189.335938 L 90.892578 188.412109 L 97.729980 188.412109 L 97.729980 189.335938 Z " fill="rgb(0, 0, 0)" fill-opacity="1.000000" />
<path d="M 97.892578 189.335938 L 97.892578 188.412109 L 104.729980 188.412109 L 104.729980 189.335938 Z " fill="rgb(0, 0, 0)" fill-opacity="1.000000" />
<path d="M 104.892578 189.335938 L 104.892578 188.412109 L 111.729980 188.412109 L 111.729980 189.335938 Z " fill="rgb(0, 0, 0)" fill-opacity="1.000000" />
<path d="M 111.892578 189.335938 L 111.892578 188.412109 L 118.729980 188.412109 L 118.729980 189.335938 Z " fill="rgb(0, 0, 0)" fill-opacity="1.000000" />
<path d="M 118.892578 189.335938 L 118.892578 188.412109 L 125.729980 188.412109 L 125.729980 189.335938 Z " fill="rgb(0, 0, 0)" fill-opacity="1.000000" />
<path d="M 125.892578 189.335938 L 125.892578 188.412109 L 132.729980 188.412109 L 132.729980 189.335938 Z " fill="rgb(0, 0, 0)" fill-opacity="1.000000" />
<path d="M 132.892578 189.335938 L 132.892578 188.412109 L 139.729980 188.412109 L 139.729980 189.335938 Z " fill="rgb(0, 0, 0)" fill-opacity="1.000000" />
<path d="M 139.892578 189.335938 L 139.892578 188.412109 L 146.729980 188.412109 L 146.729980 189.335938 Z " fill="rgb(0, 0, 0)" fill-opacity="1.000000" />
<path d="M 146.892578 189.335938 L 146.892578 188.412109 L 153.729980 188.412109 L 153.729980 189.335938 Z " fill="rgb(0, 0, 0)" fill-opacity="1.000000" />
<path d="M 153.892578 189.335938 L 153.892578 188.412109 L 160.729980 188.412109 L 160.729980 189.335938 Z " fill="rgb(0, 0, 0)" fill-opacity="1.000000" />
<path d="M 160.892578 189.335938 L 160.892578 188.412109 L 167.729980 188.412109 L 167.729980 189.335938 Z " fill="rgb(0, 0, 0)" fill-opacity="1.000000" />
<path d="M 167.892578 189.335938 L 167.892578 188.412109 L 174.729980 188.412109 L 174.729980 189.335938 Z " fill="rgb(0, 0, 0)" fill-opacity="1.000000" />
<path d="M 174.892578 189.335938 L 174.892578 188.412109 L 181.729980 188.412109 L 181.729980 189.335938 Z " fill="rgb(0, 0, 0)" fill-opacity="1.000000" />
<path d="M 181.892578 189.335938 L 181.892578 188.412109 L 188.729980 188.412109 L 188.729980 189.335938 Z " fill="rgb(0, 0, 0)" fill-opacity="1.000000" />
<path d="M 188.892578 189.335938 L 188.892578 188.412109 L 191.878906 188.412109 L 191.878906 181.300781 L 192.738281 181.300781 L 192.738281 189.335938 Z " fill="rgb(0, 0, 0)" fill-opacity="1.000000" />
<path d="M 240.878906 195.319336 L 240.878906 181.300781 L 241.738281 181.300781 L 241.738281 195.319336 Z " fill="rgb(0, 0, 0)" fill-opacity="1.000000" />
<path d="M 345.878906 195.319336 L 345.878906 181.300781 L 346.738281 181.300781 L 346.738281 195.319336 Z " fill="rgb(0, 0, 0)" fill-opacity="1.000000" />
<path d="M 363.414551 195.319336 L 370.251953 181.300781 L 371.208008 181.300781 L 364.370605 195.319336 Z " fill="rgb(0, 0, 0)" fill-opacity="1.000000" />
<path d="M 47.435547 158.254883 L 47.435547 159.355957 Q 46.941406 159.039062 46.444580 158.877930 Q 45.947754 158.716797 45.442871 158.716797 Q 44.674805 158.716797 44.229004 159.073975 Q 43.783203 159.431152 43.783203 160.038086 Q 43.783203 160.569824 44.075928 160.849121 Q 44.368652 161.128418 45.168945 161.316406 L 45.738281 161.445312 Q 46.866211 161.708496 47.381836 162.272461 Q 47.897461 162.836426 47.897461 163.808594 Q 47.897461 164.952637 47.188477 165.554199 Q 46.479492 166.155762 45.125977 166.155762 Q 44.562012 166.155762 43.992676 166.034912 Q 43.423340 165.914062 42.848633 165.672363 L 42.848633 164.517578 Q 43.466309 164.909668 44.016846 165.092285 Q 44.567383 165.274902 45.125977 165.274902 Q 45.947754 165.274902 46.404297 164.906982 Q 46.860840 164.539062 46.860840 163.878418 Q 46.860840 163.276855 46.546631 162.959961 Q 46.232422 162.643066 45.453613 162.471191 L 44.873535 162.336914 Q 43.756348 162.084473 43.251465 161.574219 Q 42.746582 161.063965 42.746582 160.204590 Q 42.746582 159.130371 43.468994 158.483154 Q 44.191406 157.835938 45.389160 157.835938 Q 45.851074 157.835938 46.361328 157.940674 Q 46.871582 158.045410 47.435547 158.254883 Z " fill="rgb(0, 0, 0)" fill-opacity="1.000000" />
<path d="M 191.878906 182.319336 L 191.878906 168.300781 L 192.738281 168.300781 L 192.738281 182.319336 Z " fill="rgb(0, 0, 0)" fill-opacity="1.000000" />
<path d="M 240.878906 182.319336 L 240.878906 168.300781 L 241.738281 168.300781 L 241.738281 182.319336 Z " fill="rgb(0, 0, 0)" fill-opacity="1.000000" />
<path d="M 345.878906 182.319336 L 345.878906 168.300781 L 346.738281 168.300781 L 346.738281 182.319336 Z " fill="rgb(0, 0, 0)" fill-opacity="1.000000" />
<path d="M 363.414551 182.319336 L 370.251953 168.300781 L 371.208008 168.300781 L 364.370605 182.319336 Z " fill="rgb(0, 0, 0)" fill-opacity="1.000000" />
<path d="M 55.015625 162.498047 L 55.015625 162.981445 L 50.734863 162.981445 L 50.734863 163.013672 Q 50.691895 164.243652 51.204834 164.780762 Q 51.717773 165.317871 52.652344 165.317871 Q 53.125000 165.317871 53.640625 165.167480 Q 54.156250 165.017090 54.741699 164.710938 L 54.741699 165.693848 Q 54.177734 165.924805 53.654053 166.040283 Q 53.130371 166.155762 52.641602 166.155762 Q 51.239746 166.155762 50.450195 165.315186 Q 49.660645 164.474609 49.660645 162.997559 Q 49.660645 161.558105 50.434082 160.698730 Q 51.207520 159.839355 52.496582 159.839355 Q 53.645996 159.839355 54.309326 160.618164 Q 54.972656 161.396973 55.015625 162.498047 Z M 54.027344 162.208008 Q 53.962891 161.584961 53.573486 161.131104 Q 53.184082 160.677246 52.453613 160.677246 Q 51.739258 160.677246 51.277344 161.149902 Q 50.815430 161.622559 50.772461 162.213379 Z " fill="rgb(0, 0, 0)" fill-opacity="1.000000" />
<path d="M 62.203613 161.225098 Q 61.886719 160.978027 61.559082 160.865234 Q 61.231445 160.752441 60.839355 160.752441 Q 59.915527 160.752441 59.426758 161.332520 Q 58.937988 161.912598 58.937988 163.008301 L 58.937988 166.000000 L 57.944336 166.000000 L 57.944336 159.984375 L 58.937988 159.984375 L 58.937988 161.160645 Q 59.185059 160.521484 59.697998 160.180420 Q 60.210938 159.839355 60.914551 159.839355 Q 61.279785 159.839355 61.596680 159.930664 Q 61.913574 160.021973 62.203613 160.215332 Z " fill="rgb(0, 0, 0)" fill-opacity="1.000000" />
<path d="M 64.697266 160.005859 L 67.227051 160.005859 L 67.227051 165.231934 L 69.187500 165.231934 L 69.187500 166.000000 L 64.278320 166.000000 L 64.278320 165.231934 L 66.238770 165.231934 L 66.238770 160.773926 L 64.697266 160.773926 Z M 66.238770 157.669434 L 67.227051 157.669434 L 67.227051 158.915527 L 66.238770 158.915527 Z " fill="rgb(0, 0, 0)" fill-opacity="1.000000" />
<path d="M 73.770508 162.976074 L 73.442871 162.976074 Q 72.578125 162.976074 72.140381 163.279541 Q 71.702637 163.583008 71.702637 164.184570 Q 71.702637 164.727051 72.030273 165.027832 Q 72.357910 165.328613 72.937988 165.328613 Q 73.754395 165.328613 74.221680 164.761963 Q 74.688965 164.195312 74.694336 163.196289 L 74.694336 162.976074 Z M 75.687988 162.567871 L 75.687988 166.000000 L 74.694336 166.000000 L 74.694336 165.108398 Q 74.377441 165.645508 73.896729 165.900635 Q 73.416016 166.155762 72.728516 166.155762 Q 71.810059 166.155762 71.262207 165.637451 Q 70.714355 165.119141 70.714355 164.249023 Q 70.714355 163.244629 71.388428 162.723633 Q 72.062500 162.202637 73.367676 162.202637 L 74.694336 162.202637 L 74.694336 162.046875 Q 74.688965 161.327148 74.329102 161.002197 Q 73.969238 160.677246 73.179688 160.677246 Q 72.674805 160.677246 72.159180 160.822266 Q 71.643555 160.967285 71.154785 161.246582 L 71.154785 160.258301 Q 71.702637 160.048828 72.204834 159.944092 Q 72.707031 159.839355 73.179688 159.839355 Q 73.926270 159.839355 74.455322 160.059570 Q 74.984375 160.279785 75.312012 160.720215 Q 75.516113 160.988770 75.602051 161.383545 Q 75.687988 161.778320 75.687988 162.567871 Z " fill="rgb(0, 0, 0)" fill-opacity="1.000000" />
<path d="M 80.861816 163.824707 Q 80.861816 164.490723 81.106201 164.829102 Q 81.350586 165.167480 81.828613 165.167480 L 82.983398 165.167480 L 82.983398 166.000000 L 81.731934 166.000000 Q 80.845703 166.000000 80.359619 165.433350 Q 79.873535 164.866699 79.873535 163.824707 L 79.873535 158.383789 L 78.289062 158.383789 L 78.289062 157.610352 L 80.861816 157.610352 Z " fill="rgb(0, 0, 0)" fill-opacity="1.000000" />
<path d="M 85.697266 160.005859 L 88.227051 160.005859 L 88.227051 165.231934 L 90.187500 165.231934 L 90.187500 166.000000 L 85.278320 166.000000 L 85.278320 165.231934 L 87.238770 165.231934 L 87.238770 160.773926 L 85.697266 160.773926 Z M 87.238770 157.669434 L 88.227051 157.669434 L 88.227051 158.915527 L 87.238770 158.915527 Z " fill="rgb(0, 0, 0)" fill-opacity="1.000000" />
<path d="M 92.219238 159.973633 L 96.585938 159.973633 L 96.585938 160.875977 L 93.132324 165.194336 L 96.585938 165.194336 L 96.585938 166.000000 L 92.090332 166.000000 L 92.090332 165.086914 L 95.543945 160.763184 L 92.219238 160.763184 Z " fill="rgb(0, 0, 0)" fill-opacity="1.000000" />
<path d="M 101.770508 162.976074 L 101.442871 162.976074 Q 100.578125 162.976074 100.140381 163.279541 Q 99.702637 163.583008 99.702637 164.184570 Q 99.702637 164.727051 100.030273 165.027832 Q 100.357910 165.328613 100.937988 165.328613 Q 101.754395 165.328613 102.221680 164.761963 Q 102.688965 164.195312 102.694336 163.196289 L 102.694336 162.976074 Z M 103.687988 162.567871 L 103.687988 166.000000 L 102.694336 166.000000 L 102.694336 165.108398 Q 102.377441 165.645508 101.896729 165.900635 Q 101.416016 166.155762 100.728516 166.155762 Q 99.810059 166.155762 99.262207 165.637451 Q 98.714355 165.119141 98.714355 164.249023 Q 98.714355 163.244629 99.388428 162.723633 Q 100.062500 162.202637 101.367676 162.202637 L 102.694336 162.202637 L 102.694336 162.046875 Q 102.688965 161.327148 102.329102 161.002197 Q 101.969238 160.677246 101.179688 160.677246 Q 100.674805 160.677246 100.159180 160.822266 Q 99.643555 160.967285 99.154785 161.246582 L 99.154785 160.258301 Q 99.702637 160.048828 100.204834 159.944092 Q 100.707031 159.839355 101.179688 159.839355 Q 101.926270 159.839355 102.455322 160.059570 Q 102.984375 160.279785 103.312012 160.720215 Q 103.516113 160.988770 103.602051 161.383545 Q 103.687988 161.778320 103.687988 162.567871 Z " fill="rgb(0, 0, 0)" fill-opacity="1.000000" />
<path d="M 108.297852 158.276367 L 108.297852 159.984375 L 110.542969 159.984375 L 110.542969 160.752441 L 108.297852 160.752441 L 108.297852 164.018066 Q 108.297852 164.684082 108.550293 164.947266 Q 108.802734 165.210449 109.431152 165.210449 L 110.542969 165.210449 L 110.542969 166.000000 L 109.334473 166.000000 Q 108.222656 166.000000 107.766113 165.554199 Q 107.309570 165.108398 107.309570 164.018066 L 107.309570 160.752441 L 105.703613 160.752441 L 105.703613 159.984375 L 107.309570 159.984375 L 107.309570 158.276367 Z " fill="rgb(0, 0, 0)" fill-opacity="1.000000" />
<path d="M 113.697266 160.005859 L 116.227051 160.005859 L 116.227051 165.231934 L 118.187500 165.231934 L 118.187500 166.000000 L 113.278320 166.000000 L 113.278320 165.231934 L 115.238770 165.231934 L 115.238770 160.773926 L 113.697266 160.773926 Z M 115.238770 157.669434 L 116.227051 157.669434 L 116.227051 158.915527 L 115.238770 158.915527 Z " fill="rgb(0, 0, 0)" fill-opacity="1.000000" />
<path d="M 122.308594 160.677246 Q 121.556641 160.677246 121.169922 161.262695 Q 120.783203 161.848145 120.783203 162.997559 Q 120.783203 164.141602 121.169922 164.729736 Q 121.556641 165.317871 122.308594 165.317871 Q 123.065918 165.317871 123.452637 164.729736 Q 123.839355 164.141602 123.839355 162.997559 Q 123.839355 161.848145 123.452637 161.262695 Q 123.065918 160.677246 122.308594 160.677246 Z M 122.308594 159.839355 Q 123.560059 159.839355 124.223389 160.650391 Q 124.886719 161.461426 124.886719 162.997559 Q 124.886719 164.539062 124.226074 165.347412 Q 123.565430 166.155762 122.308594 166.155762 Q 121.057129 166.155762 120.396484 165.347412 Q 119.735840 164.539062 119.735840 162.997559 Q 119.735840 161.461426 120.396484 160.650391 Q 121.057129 159.839355 122.308594 159.839355 Z " fill="rgb(0, 0, 0)" fill-opacity="1.000000" />
<path d="M 131.645020 162.272461 L 131.645020 166.000000 L 130.651367 166.000000 L 130.651367 162.272461 Q 130.651367 161.461426 130.366699 161.080078 Q 130.082031 160.698730 129.475098 160.698730 Q 128.782227 160.698730 128.408936 161.190186 Q 128.035645 161.681641 128.035645 162.600098 L 128.035645 166.000000 L 127.047363 166.000000 L 127.047363 159.984375 L 128.035645 159.984375 L 128.035645 160.886719 Q 128.298828 160.371094 128.750000 160.105225 Q 129.201172 159.839355 129.818848 159.839355 Q 130.737305 159.839355 131.191162 160.443604 Q 131.645020 161.047852 131.645020 162.272461 Z " fill="rgb(0, 0, 0)" fill-opacity="1.000000" />
<path d="M 141.981934 161.955566 L 141.981934 165.108398 L 143.265625 165.108398 Q 144.210938 165.108398 144.613770 164.778076 Q 145.016602 164.447754 145.016602 163.690430 Q 145.016602 162.691406 144.592285 162.323486 Q 144.167969 161.955566 143.265625 161.955566 Z M 141.981934 158.872559 L 141.981934 161.074707 L 143.244141 161.074707 Q 144.028320 161.074707 144.380127 160.773926 Q 144.731934 160.473145 144.731934 160.016602 Q 144.731934 159.409668 144.385498 159.141113 Q 144.039062 158.872559 143.244141 158.872559 Z M 140.891602 157.980957 L 143.265625 157.980957 Q 144.495605 157.980957 145.161621 158.512695 Q 145.827637 159.044434 145.827637 160.016602 Q 145.827637 160.537598 145.475830 160.961914 Q 145.124023 161.386230 144.420410 161.493652 Q 145.209961 161.611816 145.658447 162.167725 Q 146.106934 162.723633 146.106934 163.797852 Q 146.106934 164.888184 145.392578 165.444092 Q 144.678223 166.000000 143.265625 166.000000 L 140.891602 166.000000 Z " fill="rgb(0, 0, 0)" fill-opacity="1.000000" />
<path d="M 150.861816 163.824707 Q 150.861816 164.490723 151.106201 164.829102 Q 151.350586 165.167480 151.828613 165.167480 L 152.983398 165.167480 L 152.983398 166.000000 L 151.731934 166.000000 Q 150.845703 166.000000 150.359619 165.433350 Q 149.873535 164.866699 149.873535 163.824707 L 149.873535 158.383789 L 148.289062 158.383789 L 148.289062 157.610352 L 150.861816 157.610352 Z " fill="rgb(0, 0, 0)" fill-opacity="1.000000" />
<path d="M 157.308594 160.677246 Q 156.556641 160.677246 156.169922 161.262695 Q 155.783203 161.848145 155.783203 162.997559 Q 155.783203 164.141602 156.169922 164.729736 Q 156.556641 165.317871 157.308594 165.317871 Q 158.065918 165.317871 158.452637 164.729736 Q 158.839355 164.141602 158.839355 162.997559 Q 158.839355 161.848145 158.452637 161.262695 Q 158.065918 160.677246 157.308594 160.677246 Z M 157.308594 159.839355 Q 158.560059 159.839355 159.223389 160.650391 Q 159.886719 161.461426 159.886719 162.997559 Q 159.886719 164.539062 159.226074 165.347412 Q 158.565430 166.155762 157.308594 166.155762 Q 156.057129 166.155762 155.396484 165.347412 Q 154.735840 164.539062 154.735840 162.997559 Q 154.735840 161.461426 155.396484 160.650391 Q 156.057129 159.839355 157.308594 159.839355 Z " fill="rgb(0, 0, 0)" fill-opacity="1.000000" />
<path d="M 166.698730 165.693848 Q 166.301270 165.924805 165.879639 166.040283 Q 165.458008 166.155762 165.017578 166.155762 Q 163.621094 166.155762 162.834229 165.317871 Q 162.047363 164.479980 162.047363 162.997559 Q 162.047363 161.515137 162.834229 160.677246 Q 163.621094 159.839355 165.017578 159.839355 Q 165.452637 159.839355 165.866211 159.952148 Q 166.279785 160.064941 166.698730 160.301270 L 166.698730 161.337891 Q 166.306641 160.988770 165.911865 160.833008 Q 165.517090 160.677246 165.017578 160.677246 Q 164.088379 160.677246 163.588867 161.278809 Q 163.089355 161.880371 163.089355 162.997559 Q 163.089355 164.109375 163.591553 164.713623 Q 164.093750 165.317871 165.017578 165.317871 Q 165.533203 165.317871 165.941406 165.159424 Q 166.349609 165.000977 166.698730 164.667969 Z " fill="rgb(0, 0, 0)" fill-opacity="1.000000" />
<path d="M 169.267578 157.642578 L 170.288086 157.642578 L 170.288086 162.481934 L 172.882324 159.984375 L 174.085449 159.984375 L 171.716797 162.250977 L 174.456055 166.000000 L 173.247559 166.000000 L 171.023926 162.895508 L 170.288086 163.588379 L 170.288086 166.000000 L 169.267578 166.000000 Z " fill="rgb(0, 0, 0)" fill-opacity="1.000000" />
<path d="M 191.878906 169.319336 L 191.878906 155.300781 L 192.738281 155.300781 L 192.738281 169.319336 Z " fill="rgb(0, 0, 0)" fill-opacity="1.000000" />
<path d="M 195.892578 163.335938 L 195.892578 162.412109 L 202.729980 162.412109 L 202.729980 163.335938 Z " fill="rgb(0, 0, 0)" fill-opacity="1.000000" />
<path d="M 202.892578 163.335938 L 202.892578 162.412109 L 209.729980 162.412109 L 209.729980 163.335938 Z " fill="rgb(0, 0, 0)" fill-opacity="1.000000" />
<path d="M 209.892578 163.335938 L 209.892578 162.412109 L 216.729980 162.412109 L 216.729980 163.335938 Z " fill="rgb(0, 0, 0)" fill-opacity="1.000000" />
<path d="M 216.892578 163.335938 L 216.892578 162.412109 L 223.729980 162.412109 L 223.729980 163.335938 Z " fill="rgb(0, 0, 0)" fill-opacity="1.000000" />
<path d="M 223.892578 163.335938 L 223.892578 162.412109 L 230.729980 162.412109 L 230.729980 163.335938 Z " fill="rgb(0, 0, 0)" fill-opacity="1.000000" />
<path d="M 231.032227 166.418945 L 231.032227 159.866211 L 237.590332 163.142578 Z " fill="rgb(0, 0, 0)" fill-opacity="1.000000" />
<path d="M 240.878906 169.319336 L 240.878906 155.300781 L 241.738281 155.300781 L 241.738281 169.319336 Z " fill="rgb(0, 0, 0)" fill-opacity="1.000000" />
<path d="M 261.341797 165.108398 Q 262.711426 165.108398 263.253906 164.434326 Q 263.796387 163.760254 263.796387 161.998535 Q 263.796387 160.220703 263.256592 159.546631 Q 262.716797 158.872559 261.341797 158.872559 L 260.826172 158.872559 L 260.826172 165.108398 Z M 261.363281 157.980957 Q 263.200195 157.980957 264.070312 158.958496 Q 264.940430 159.936035 264.940430 161.998535 Q 264.940430 164.050293 264.070312 165.025146 Q 263.200195 166.000000 261.363281 166.000000 L 259.735840 166.000000 L 259.735840 157.980957 Z " fill="rgb(0, 0, 0)" fill-opacity="1.000000" />
<path d="M 269.770508 162.976074 L 269.442871 162.976074 Q 268.578125 162.976074 268.140381 163.279541 Q 267.702637 163.583008 267.702637 164.184570 Q 267.702637 164.727051 268.030273 165.027832 Q 268.357910 165.328613 268.937988 165.328613 Q 269.754395 165.328613 270.221680 164.761963 Q 270.688965 164.195312 270.694336 163.196289 L 270.694336 162.976074 Z M 271.687988 162.567871 L 271.687988 166.000000 L 270.694336 166.000000 L 270.694336 165.108398 Q 270.377441 165.645508 269.896729 165.900635 Q 269.416016 166.155762 268.728516 166.155762 Q 267.810059 166.155762 267.262207 165.637451 Q 266.714355 165.119141 266.714355 164.249023 Q 266.714355 163.244629 267.388428 162.723633 Q 268.062500 162.202637 269.367676 162.202637 L 270.694336 162.202637 L 270.694336 162.046875 Q 270.688965 161.327148 270.329102 161.002197 Q 269.969238 160.677246 269.179688 160.677246 Q 268.674805 160.677246 268.159180 160.822266 Q 267.643555 160.967285 267.154785 161.246582 L 267.154785 160.258301 Q 267.702637 160.048828 268.204834 159.944092 Q 268.707031 159.839355 269.179688 159.839355 Q 269.926270 159.839355 270.455322 160.059570 Q 270.984375 160.279785 271.312012 160.720215 Q 271.516113 160.988770 271.602051 161.383545 Q 271.687988 161.778320 271.687988 162.567871 Z " fill="rgb(0, 0, 0)" fill-opacity="1.000000" />
<path d="M 276.297852 158.276367 L 276.297852 159.984375 L 278.542969 159.984375 L 278.542969 160.752441 L 276.297852 160.752441 L 276.297852 164.018066 Q 276.297852 164.684082 276.550293 164.947266 Q 276.802734 165.210449 277.431152 165.210449 L 278.542969 165.210449 L 278.542969 166.000000 L 277.334473 166.000000 Q 276.222656 166.000000 275.766113 165.554199 Q 275.309570 165.108398 275.309570 164.018066 L 275.309570 160.752441 L 273.703613 160.752441 L 273.703613 159.984375 L 275.309570 159.984375 L 275.309570 158.276367 Z " fill="rgb(0, 0, 0)" fill-opacity="1.000000" />
<path d="M 283.770508 162.976074 L 283.442871 162.976074 Q 282.578125 162.976074 282.140381 163.279541 Q 281.702637 163.583008 281.702637 164.184570 Q 281.702637 164.727051 282.030273 165.027832 Q 282.357910 165.328613 282.937988 165.328613 Q 283.754395 165.328613 284.221680 164.761963 Q 284.688965 164.195312 284.694336 163.196289 L 284.694336 162.976074 Z M 285.687988 162.567871 L 285.687988 166.000000 L 284.694336 166.000000 L 284.694336 165.108398 Q 284.377441 165.645508 283.896729 165.900635 Q 283.416016 166.155762 282.728516 166.155762 Q 281.810059 166.155762 281.262207 165.637451 Q 280.714355 165.119141 280.714355 164.249023 Q 280.714355 163.244629 281.388428 162.723633 Q 282.062500 162.202637 283.367676 162.202637 L 284.694336 162.202637 L 284.694336 162.046875 Q 284.688965 161.327148 284.329102 161.002197 Q 283.969238 160.677246 283.179688 160.677246 Q 282.674805 160.677246 282.159180 160.822266 Q 281.643555 160.967285 281.154785 161.246582 L 281.154785 160.258301 Q 281.702637 160.048828 282.204834 159.944092 Q 282.707031 159.839355 283.179688 159.839355 Q 283.926270 159.839355 284.455322 160.059570 Q 284.984375 160.279785 285.312012 160.720215 Q 285.516113 160.988770 285.602051 161.383545 Q 285.687988 161.778320 285.687988 162.567871 Z " fill="rgb(0, 0, 0)" fill-opacity="1.000000" />
<path d="M 294.193359 158.007812 L 295.643555 158.007812 L 297.029297 162.079102 L 298.425781 158.007812 L 299.881348 158.007812 L 299.881348 166.000000 L 298.876953 166.000000 L 298.876953 158.937012 L 297.448242 163.147949 L 296.626465 163.147949 L 295.192383 158.937012 L 295.192383 166.000000 L 294.193359 166.000000 Z " fill="rgb(0, 0, 0)" fill-opacity="1.000000" />
<path d="M 304.308594 160.677246 Q 303.556641 160.677246 303.169922 161.262695 Q 302.783203 161.848145 302.783203 162.997559 Q 302.783203 164.141602 303.169922 164.729736 Q 303.556641 165.317871 304.308594 165.317871 Q 305.065918 165.317871 305.452637 164.729736 Q 305.839355 164.141602 305.839355 162.997559 Q 305.839355 161.848145 305.452637 161.262695 Q 305.065918 160.677246 304.308594 160.677246 Z M 304.308594 159.839355 Q 305.560059 159.839355 306.223389 160.650391 Q 306.886719 161.461426 306.886719 162.997559 Q 306.886719 164.539062 306.226074 165.347412 Q 305.565430 166.155762 304.308594 166.155762 Q 303.057129 166.155762 302.396484 165.347412 Q 301.735840 164.539062 301.735840 162.997559 Q 301.735840 161.461426 302.396484 160.650391 Q 303.057129 159.839355 304.308594 159.839355 Z " fill="rgb(0, 0, 0)" fill-opacity="1.000000" />
<path d="M 312.608398 160.752441 L 312.608398 157.642578 L 313.596680 157.642578 L 313.596680 166.000000 L 312.608398 166.000000 L 312.608398 165.242676 Q 312.361328 165.688477 311.950439 165.922119 Q 311.539551 166.155762 311.002441 166.155762 Q 309.912109 166.155762 309.286377 165.309814 Q 308.660645 164.463867 308.660645 162.976074 Q 308.660645 161.509766 309.289062 160.674561 Q 309.917480 159.839355 311.002441 159.839355 Q 311.544922 159.839355 311.958496 160.072998 Q 312.372070 160.306641 312.608398 160.752441 Z M 309.702637 162.997559 Q 309.702637 164.146973 310.067871 164.732422 Q 310.433105 165.317871 311.147461 165.317871 Q 311.861816 165.317871 312.235107 164.727051 Q 312.608398 164.136230 312.608398 162.997559 Q 312.608398 161.853516 312.235107 161.265381 Q 311.861816 160.677246 311.147461 160.677246 Q 310.433105 160.677246 310.067871 161.262695 Q 309.702637 161.848145 309.702637 162.997559 Z " fill="rgb(0, 0, 0)" fill-opacity="1.000000" />
<path d="M 321.015625 162.498047 L 321.015625 162.981445 L 316.734863 162.981445 L 316.734863 163.013672 Q 316.691895 164.243652 317.204834 164.780762 Q 317.717773 165.317871 318.652344 165.317871 Q 319.125000 165.317871 319.640625 165.167480 Q 320.156250 165.017090 320.741699 164.710938 L 320.741699 165.693848 Q 320.177734 165.924805 319.654053 166.040283 Q 319.130371 166.155762 318.641602 166.155762 Q 317.239746 166.155762 316.450195 165.315186 Q 315.660645 164.474609 315.660645 162.997559 Q 315.660645 161.558105 316.434082 160.698730 Q 317.207520 159.839355 318.496582 159.839355 Q 319.645996 159.839355 320.309326 160.618164 Q 320.972656 161.396973 321.015625 162.498047 Z M 320.027344 162.208008 Q 319.962891 161.584961 319.573486 161.131104 Q 319.184082 160.677246 318.453613 160.677246 Q 317.739258 160.677246 317.277344 161.149902 Q 316.815430 161.622559 316.772461 162.213379 Z " fill="rgb(0, 0, 0)" fill-opacity="1.000000" />
<path d="M 325.861816 163.824707 Q 325.861816 164.490723 326.106201 164.829102 Q 326.350586 165.167480 326.828613 165.167480 L 327.983398 165.167480 L 327.983398 166.000000 L 326.731934 166.000000 Q 325.845703 166.000000 325.359619 165.433350 Q 324.873535 164.866699 324.873535 163.824707 L 324.873535 158.383789 L 323.289062 158.383789 L 323.289062 157.610352 L 325.861816 157.610352 Z " fill="rgb(0, 0, 0)" fill-opacity="1.000000" />
<path d="M 345.878906 169.319336 L 345.878906 155.300781 L 346.738281 155.300781 L 346.738281 169.319336 Z " fill="rgb(0, 0, 0)" fill-opacity="1.000000" />
<path d="M 363.414551 169.319336 L 370.251953 155.300781 L 371.208008 155.300781 L 364.370605 169.319336 Z " fill="rgb(0, 0, 0)" fill-opacity="1.000000" />
<path d="M 191.878906 156.319336 L 191.878906 142.300781 L 192.738281 142.300781 L 192.738281 156.319336 Z " fill="rgb(0, 0, 0)" fill-opacity="1.000000" />
<path d="M 240.878906 156.319336 L 240.878906 142.300781 L 241.738281 142.300781 L 241.738281 156.319336 Z " fill="rgb(0, 0, 0)" fill-opacity="1.000000" />
<path d="M 345.878906 156.319336 L 345.878906 142.300781 L 346.738281 142.300781 L 346.738281 156.319336 Z " fill="rgb(0, 0, 0)" fill-opacity="1.000000" />
<path d="M 363.414551 156.319336 L 370.251953 142.300781 L 371.208008 142.300781 L 364.370605 156.319336 Z " fill="rgb(0, 0, 0)" fill-opacity="1.000000" />
<path d="M 27.892578 137.335938 L 27.892578 136.412109 L 34.729980 136.412109 L 34.729980 137.335938 Z " fill="rgb(0, 0, 0)" fill-opacity="1.000000" />
<path d="M 34.892578 137.335938 L 34.892578 136.412109 L 41.729980 136.412109 L 41.729980 137.335938 Z " fill="rgb(0, 0, 0)" fill-opacity="1.000000" />
<path d="M 41.892578 137.335938 L 41.892578 136.412109 L 48.729980 136.412109 L 48.729980 137.335938 Z " fill="rgb(0, 0, 0)" fill-opacity="1.000000" />
<path d="M 48.892578 137.335938 L 48.892578 136.412109 L 55.729980 136.412109 L 55.729980 137.335938 Z " fill="rgb(0, 0, 0)" fill-opacity="1.000000" />
<path d="M 55.892578 137.335938 L 55.892578 136.412109 L 62.729980 136.412109 L 62.729980 137.335938 Z " fill="rgb(0, 0, 0)" fill-opacity="1.000000" />
<path d="M 62.892578 137.335938 L 62.892578 136.412109 L 69.729980 136.412109 L 69.729980 137.335938 Z " fill="rgb(0, 0, 0)" fill-opacity="1.000000" />
<path d="M 69.892578 137.335938 L 69.892578 136.412109 L 76.729980 136.412109 L 76.729980 137.335938 Z " fill="rgb(0, 0, 0)" fill-opacity="1.000000" />
<path d="M 76.892578 137.335938 L 76.892578 136.412109 L 83.729980 136.412109 L 83.729980 137.335938 Z " fill="rgb(0, 0, 0)" fill-opacity="1.000000" />
<path d="M 83.892578 137.335938 L 83.892578 136.412109 L 90.729980 136.412109 L 90.729980 137.335938 Z " fill="rgb(0, 0, 0)" fill-opacity="1.000000" />
<path d="M 90.892578 137.335938 L 90.892578 136.412109 L 97.729980 136.412109 L 97.729980 137.335938 Z " fill="rgb(0, 0, 0)" fill-opacity="1.000000" />
<path d="M 97.892578 137.335938 L 97.892578 136.412109 L 104.729980 136.412109 L 104.729980 137.335938 Z " fill="rgb(0, 0, 0)" fill-opacity="1.000000" />
<path d="M 104.892578 137.335938 L 104.892578 136.412109 L 111.729980 136.412109 L 111.729980 137.335938 Z " fill="rgb(0, 0, 0)" fill-opacity="1.000000" />
<path d="M 111.892578 137.335938 L 111.892578 136.412109 L 118.729980 136.412109 L 118.729980 137.335938 Z " fill="rgb(0, 0, 0)" fill-opacity="1.000000" />
<path d="M 118.892578 137.335938 L 118.892578 136.412109 L 125.729980 136.412109 L 125.729980 137.335938 Z " fill="rgb(0, 0, 0)" fill-opacity="1.000000" />
<path d="M 125.892578 137.335938 L 125.892578 136.412109 L 132.729980 136.412109 L 132.729980 137.335938 Z " fill="rgb(0, 0, 0)" fill-opacity="1.000000" />
<path d="M 132.892578 137.335938 L 132.892578 136.412109 L 139.729980 136.412109 L 139.729980 137.335938 Z " fill="rgb(0, 0, 0)" fill-opacity="1.000000" />
<path d="M 139.892578 137.335938 L 139.892578 136.412109 L 146.729980 136.412109 L 146.729980 137.335938 Z " fill="rgb(0, 0, 0)" fill-opacity="1.000000" />
<path d="M 146.892578 137.335938 L 146.892578 136.412109 L 153.729980 136.412109 L 153.729980 137.335938 Z " fill="rgb(0, 0, 0)" fill-opacity="1.000000" />
<path d="M 153.892578 137.335938 L 153.892578 136.412109 L 160.729980 136.412109 L 160.729980 137.335938 Z " fill="rgb(0, 0, 0)" fill-opacity="1.000000" />
<path d="M 160.892578 137.335938 L 160.892578 136.412109 L 167.729980 136.412109 L 167.729980 137.335938 Z " fill="rgb(0, 0, 0)" fill-opacity="1.000000" />
<path d="M 167.892578 137.335938 L 167.892578 136.412109 L 174.729980 136.412109 L 174.729980 137.335938 Z " fill="rgb(0, 0, 0)" fill-opacity="1.000000" />
<path d="M 174.892578 137.335938 L 174.892578 136.412109 L 181.729980 136.412109 L 181.729980 137.335938 Z " fill="rgb(0, 0, 0)" fill-opacity="1.000000" />
<path d="M 181.892578 137.335938 L 181.892578 136.412109 L 188.729980 136.412109 L 188.729980 137.335938 Z " fill="rgb(0, 0, 0)" fill-opacity="1.000000" />
<path d="M 191.878906 143.319336 L 191.878906 137.335938 L 188.892578 137.335938 L 188.892578 136.412109 L 192.738281 136.412109 L 192.738281 143.319336 Z " fill="rgb(0, 0, 0)" fill-opacity="1.000000" />
<path d="M 240.878906 143.319336 L 240.878906 129.300781 L 241.738281 129.300781 L 241.738281 143.319336 Z " fill="rgb(0, 0, 0)" fill-opacity="1.000000" />
<path d="M 345.878906 143.319336 L 345.878906 129.300781 L 346.738281 129.300781 L 346.738281 143.319336 Z " fill="rgb(0, 0, 0)" fill-opacity="1.000000" />
<path d="M 363.414551 143.319336 L 370.251953 129.300781 L 371.208008 129.300781 L 364.370605 143.319336 Z " fill="rgb(0, 0, 0)" fill-opacity="1.000000" />
<path d="M 107.878906 117.319336 L 107.878906 103.300781 L 108.738281 103.300781 L 108.738281 117.319336 Z " fill="rgb(0, 0, 0)" fill-opacity="1.000000" />
<path d="M 108.308594 127.418945 L 105.032227 120.866211 L 111.590332 120.866211 Z " fill="rgb(0, 0, 0)" fill-opacity="1.000000" />
<path d="M 240.878906 130.319336 L 240.878906 116.300781 L 241.738281 116.300781 L 241.738281 130.319336 Z " fill="rgb(0, 0, 0)" fill-opacity="1.000000" />
<path d="M 345.878906 130.319336 L 345.878906 116.300781 L 346.738281 116.300781 L 346.738281 130.319336 Z " fill="rgb(0, 0, 0)" fill-opacity="1.000000" />
<path d="M 363.414551 130.319336 L 370.251953 116.300781 L 371.208008 116.300781 L 364.370605 130.319336 Z " fill="rgb(0, 0, 0)" fill-opacity="1.000000" />
<path d="M 240.878906 117.319336 L 240.878906 110.412109 L 244.729980 110.412109 L 244.729980 111.335938 L 241.738281 111.335938 L 241.738281 117.319336 Z " fill="rgb(0, 0, 0)" fill-opacity="1.000000" />
<path d="M 244.892578 111.335938 L 244.892578 110.412109 L 251.729980 110.412109 L 251.729980 111.335938 Z " fill="rgb(0, 0, 0)" fill-opacity="1.000000" />
<path d="M 251.892578 111.335938 L 251.892578 110.412109 L 258.729980 110.412109 L 258.729980 111.335938 Z " fill="rgb(0, 0, 0)" fill-opacity="1.000000" />
<path d="M 258.892578 111.335938 L 258.892578 110.412109 L 265.729980 110.412109 L 265.729980 111.335938 Z " fill="rgb(0, 0, 0)" fill-opacity="1.000000" />
<path d="M 265.892578 111.335938 L 265.892578 110.412109 L 272.729980 110.412109 L 272.729980 111.335938 Z " fill="rgb(0, 0, 0)" fill-opacity="1.000000" />
<path d="M 272.892578 111.335938 L 272.892578 110.412109 L 279.729980 110.412109 L 279.729980 111.335938 Z " fill="rgb(0, 0, 0)" fill-opacity="1.000000" />
<path d="M 279.892578 111.335938 L 279.892578 110.412109 L 286.729980 110.412109 L 286.729980 111.335938 Z " fill="rgb(0, 0, 0)" fill-opacity="1.000000" />
<path d="M 286.892578 111.335938 L 286.892578 110.412109 L 293.729980 110.412109 L 293.729980 111.335938 Z " fill="rgb(0, 0, 0)" fill-opacity="1.000000" />
<path d="M 293.892578 111.335938 L 293.892578 110.412109 L 300.729980 110.412109 L 300.729980 111.335938 Z " fill="rgb(0, 0, 0)" fill-opacity="1.000000" />
<path d="M 300.892578 111.335938 L 300.892578 110.412109 L 307.729980 110.412109 L 307.729980 111.335938 Z " fill="rgb(0, 0, 0)" fill-opacity="1.000000" />
<path d="M 307.892578 111.335938 L 307.892578 110.412109 L 314.729980 110.412109 L 314.729980 111.335938 Z " fill="rgb(0, 0, 0)" fill-opacity="1.000000" />
<path d="M 314.892578 111.335938 L 314.892578 110.412109 L 321.729980 110.412109 L 321.729980 111.335938 Z " fill="rgb(0, 0, 0)" fill-opacity="1.000000" />
<path d="M 321.892578 111.335938 L 321.892578 110.412109 L 328.729980 110.412109 L 328.729980 111.335938 Z " fill="rgb(0, 0, 0)" fill-opacity="1.000000" />
<path d="M 328.892578 111.335938 L 328.892578 110.412109 L 335.729980 110.412109 L 335.729980 111.335938 Z " fill="rgb(0, 0, 0)" fill-opacity="1.000000" />
<path d="M 335.892578 111.335938 L 335.892578 110.412109 L 342.729980 110.412109 L 342.729980 111.335938 Z " fill="rgb(0, 0, 0)" fill-opacity="1.000000" />
<path d="M 345.878906 117.319336 L 345.878906 111.335938 L 342.892578 111.335938 L 342.892578 110.412109 L 346.738281 110.412109 L 346.738281 117.319336 Z " fill="rgb(0, 0, 0)" fill-opacity="1.000000" />
<path d="M 363.414551 117.319336 L 370.251953 103.300781 L 371.208008 103.300781 L 364.370605 117.319336 Z " fill="rgb(0, 0, 0)" fill-opacity="1.000000" />
<path d="M 6.892578 98.335938 L 6.892578 97.412109 L 13.729980 97.412109 L 13.729980 98.335938 Z " fill="rgb(0, 0, 0)" fill-opacity="1.000000" />
<path d="M 19.929688 100.339355 Q 19.494629 100.742188 18.949463 100.948975 Q 18.404297 101.155762 17.770508 101.155762 Q 16.245117 101.155762 15.396484 100.062744 Q 14.547852 98.969727 14.547852 96.998535 Q 14.547852 95.032715 15.407227 93.934326 Q 16.266602 92.835938 17.797363 92.835938 Q 18.302246 92.835938 18.764160 92.978271 Q 19.226074 93.120605 19.655762 93.410645 L 19.655762 94.522461 Q 19.220703 94.108887 18.764160 93.912842 Q 18.307617 93.716797 17.797363 93.716797 Q 16.739258 93.716797 16.210205 94.535889 Q 15.681152 95.354980 15.681152 96.998535 Q 15.681152 98.668945 16.194092 99.471924 Q 16.707031 100.274902 17.770508 100.274902 Q 18.130371 100.274902 18.401611 100.191650 Q 18.672852 100.108398 18.893066 99.931152 L 18.893066 97.777344 L 17.727539 97.777344 L 17.727539 96.885742 L 19.929688 96.885742 Z " fill="rgb(0, 0, 0)" fill-opacity="1.000000" />
<path d="M 27.015625 97.498047 L 27.015625 97.981445 L 22.734863 97.981445 L 22.734863 98.013672 Q 22.691895 99.243652 23.204834 99.780762 Q 23.717773 100.317871 24.652344 100.317871 Q 25.125000 100.317871 25.640625 100.167480 Q 26.156250 100.017090 26.741699 99.710938 L 26.741699 100.693848 Q 26.177734 100.924805 25.654053 101.040283 Q 25.130371 101.155762 24.641602 101.155762 Q 23.239746 101.155762 22.450195 100.315186 Q 21.660645 99.474609 21.660645 97.997559 Q 21.660645 96.558105 22.434082 95.698730 Q 23.207520 94.839355 24.496582 94.839355 Q 25.645996 94.839355 26.309326 95.618164 Q 26.972656 96.396973 27.015625 97.498047 Z M 26.027344 97.208008 Q 25.962891 96.584961 25.573486 96.131104 Q 25.184082 95.677246 24.453613 95.677246 Q 23.739258 95.677246 23.277344 96.149902 Q 22.815430 96.622559 22.772461 97.213379 Z " fill="rgb(0, 0, 0)" fill-opacity="1.000000" />
<path d="M 31.297852 93.276367 L 31.297852 94.984375 L 33.542969 94.984375 L 33.542969 95.752441 L 31.297852 95.752441 L 31.297852 99.018066 Q 31.297852 99.684082 31.550293 99.947266 Q 31.802734 100.210449 32.431152 100.210449 L 33.542969 100.210449 L 33.542969 101.000000 L 32.334473 101.000000 Q 31.222656 101.000000 30.766113 100.554199 Q 30.309570 100.108398 30.309570 99.018066 L 30.309570 95.752441 L 28.703613 95.752441 L 28.703613 94.984375 L 30.309570 94.984375 L 30.309570 93.276367 Z " fill="rgb(0, 0, 0)" fill-opacity="1.000000" />
<path d="M 38.297852 93.276367 L 38.297852 94.984375 L 40.542969 94.984375 L 40.542969 95.752441 L 38.297852 95.752441 L 38.297852 99.018066 Q 38.297852 99.684082 38.550293 99.947266 Q 38.802734 100.210449 39.431152 100.210449 L 40.542969 100.210449 L 40.542969 101.000000 L 39.334473 101.000000 Q 38.222656 101.000000 37.766113 100.554199 Q 37.309570 100.108398 37.309570 99.018066 L 37.309570 95.752441 L 35.703613 95.752441 L 35.703613 94.984375 L 37.309570 94.984375 L 37.309570 93.276367 Z " fill="rgb(0, 0, 0)" fill-opacity="1.000000" />
<path d="M 46.608398 99.066406 Q 46.361328 99.694824 45.979980 100.720703 Q 45.448242 102.138672 45.265625 102.450195 Q 45.018555 102.869141 44.647949 103.078613 Q 44.277344 103.288086 43.783203 103.288086 L 42.988281 103.288086 L 42.988281 102.460938 L 43.573730 102.460938 Q 44.008789 102.460938 44.255859 102.208496 Q 44.502930 101.956055 44.884277 100.903320 L 42.558594 94.984375 L 43.605957 94.984375 L 45.389160 99.689453 L 47.145508 94.984375 L 48.192871 94.984375 Z " fill="rgb(0, 0, 0)" fill-opacity="1.000000" />
<path d="M 48.892578 98.335938 L 48.892578 97.412109 L 55.729980 97.412109 L 55.729980 98.335938 Z " fill="rgb(0, 0, 0)" fill-opacity="1.000000" />
<path d="M 55.892578 98.335938 L 55.892578 97.412109 L 62.729980 97.412109 L 62.729980 98.335938 Z " fill="rgb(0, 0, 0)" fill-opacity="1.000000" />
<path d="M 62.892578 98.335938 L 62.892578 97.412109 L 69.729980 97.412109 L 69.729980 98.335938 Z " fill="rgb(0, 0, 0)" fill-opacity="1.000000" />
<path d="M 69.892578 98.335938 L 69.892578 97.412109 L 76.729980 97.412109 L 76.729980 98.335938 Z " fill="rgb(0, 0, 0)" fill-opacity="1.000000" />
<path d="M 76.892578 98.335938 L 76.892578 97.412109 L 83.729980 97.412109 L 83.729980 98.335938 Z " fill="rgb(0, 0, 0)" fill-opacity="1.000000" />
<path d="M 83.892578 98.335938 L 83.892578 97.412109 L 90.729980 97.412109 L 90.729980 98.335938 Z " fill="rgb(0, 0, 0)" fill-opacity="1.000000" />
<path d="M 90.892578 98.335938 L 90.892578 97.412109 L 97.729980 97.412109 L 97.729980 98.335938 Z " fill="rgb(0, 0, 0)" fill-opacity="1.000000" />
<path d="M 97.892578 98.335938 L 97.892578 97.412109 L 104.729980 97.412109 L 104.729980 98.335938 Z " fill="rgb(0, 0, 0)" fill-opacity="1.000000" />
<path d="M 107.878906 104.319336 L 107.878906 90.300781 L 108.738281 90.300781 L 108.738281 104.319336 Z " fill="rgb(0, 0, 0)" fill-opacity="1.000000" />
<path d="M 111.892578 98.335938 L 111.892578 97.412109 L 118.729980 97.412109 L 118.729980 98.335938 Z " fill="rgb(0, 0, 0)" fill-opacity="1.000000" />
<path d="M 118.892578 98.335938 L 118.892578 97.412109 L 125.729980 97.412109 L 125.729980 98.335938 Z " fill="rgb(0, 0, 0)" fill-opacity="1.000000" />
<path d="M 125.892578 98.335938 L 125.892578 97.412109 L 132.729980 97.412109 L 132.729980 98.335938 Z " fill="rgb(0, 0, 0)" fill-opacity="1.000000" />
<path d="M 132.892578 98.335938 L 132.892578 97.412109 L 139.729980 97.412109 L 139.729980 98.335938 Z " fill="rgb(0, 0, 0)" fill-opacity="1.000000" />
<path d="M 139.892578 98.335938 L 139.892578 97.412109 L 146.729980 97.412109 L 146.729980 98.335938 Z " fill="rgb(0, 0, 0)" fill-opacity="1.000000" />
<path d="M 146.892578 98.335938 L 146.892578 97.412109 L 153.729980 97.412109 L 153.729980 98.335938 Z " fill="rgb(0, 0, 0)" fill-opacity="1.000000" />
<path d="M 153.892578 98.335938 L 153.892578 97.412109 L 160.729980 97.412109 L 160.729980 98.335938 Z " fill="rgb(0, 0, 0)" fill-opacity="1.000000" />
<path d="M 160.892578 98.335938 L 160.892578 97.412109 L 167.729980 97.412109 L 167.729980 98.335938 Z " fill="rgb(0, 0, 0)" fill-opacity="1.000000" />
<path d="M 167.892578 98.335938 L 167.892578 97.412109 L 174.729980 97.412109 L 174.729980 98.335938 Z " fill="rgb(0, 0, 0)" fill-opacity="1.000000" />
<path d="M 174.892578 98.335938 L 174.892578 97.412109 L 181.729980 97.412109 L 181.729980 98.335938 Z " fill="rgb(0, 0, 0)" fill-opacity="1.000000" />
<path d="M 181.892578 98.335938 L 181.892578 97.412109 L 188.729980 97.412109 L 188.729980 98.335938 Z " fill="rgb(0, 0, 0)" fill-opacity="1.000000" />
<path d="M 188.892578 98.335938 L 188.892578 97.412109 L 195.729980 97.412109 L 195.729980 98.335938 Z " fill="rgb(0, 0, 0)" fill-opacity="1.000000" />
<path d="M 195.892578 98.335938 L 195.892578 97.412109 L 202.729980 97.412109 L 202.729980 98.335938 Z " fill="rgb(0, 0, 0)" fill-opacity="1.000000" />
<path d="M 202.892578 98.335938 L 202.892578 97.412109 L 209.729980 97.412109 L 209.729980 98.335938 Z " fill="rgb(0, 0, 0)" fill-opacity="1.000000" />
<path d="M 209.892578 98.335938 L 209.892578 97.412109 L 216.729980 97.412109 L 216.729980 98.335938 Z " fill="rgb(0, 0, 0)" fill-opacity="1.000000" />
<path d="M 216.892578 98.335938 L 216.892578 97.412109 L 223.729980 97.412109 L 223.729980 98.335938 Z " fill="rgb(0, 0, 0)" fill-opacity="1.000000" />
<path d="M 223.892578 98.335938 L 223.892578 97.412109 L 230.729980 97.412109 L 230.729980 98.335938 Z " fill="rgb(0, 0, 0)" fill-opacity="1.000000" />
<path d="M 230.892578 98.335938 L 230.892578 97.412109 L 237.729980 97.412109 L 237.729980 98.335938 Z " fill="rgb(0, 0, 0)" fill-opacity="1.000000" />
<path d="M 237.892578 98.335938 L 237.892578 97.412109 L 244.729980 97.412109 L 244.729980 98.335938 Z " fill="rgb(0, 0, 0)" fill-opacity="1.000000" />
<path d="M 244.892578 98.335938 L 244.892578 97.412109 L 251.729980 97.412109 L 251.729980 98.335938 Z " fill="rgb(0, 0, 0)" fill-opacity="1.000000" />
<path d="M 251.892578 98.335938 L 251.892578 97.412109 L 258.729980 97.412109 L 258.729980 98.335938 Z " fill="rgb(0, 0, 0)" fill-opacity="1.000000" />
<path d="M 258.892578 98.335938 L 258.892578 97.412109 L 265.729980 97.412109 L 265.729980 98.335938 Z " fill="rgb(0, 0, 0)" fill-opacity="1.000000" />
<path d="M 265.892578 98.335938 L 265.892578 97.412109 L 272.729980 97.412109 L 272.729980 98.335938 Z " fill="rgb(0, 0, 0)" fill-opacity="1.000000" />
<path d="M 272.892578 98.335938 L 272.892578 97.412109 L 279.729980 97.412109 L 279.729980 98.335938 Z " fill="rgb(0, 0, 0)" fill-opacity="1.000000" />
<path d="M 279.892578 98.335938 L 279.892578 97.412109 L 286.729980 97.412109 L 286.729980 98.335938 Z " fill="rgb(0, 0, 0)" fill-opacity="1.000000" />
<path d="M 286.892578 98.335938 L 286.892578 97.412109 L 293.729980 97.412109 L 293.729980 98.335938 Z " fill="rgb(0, 0, 0)" fill-opacity="1.000000" />
<path d="M 293.892578 98.335938 L 293.892578 97.412109 L 300.729980 97.412109 L 300.729980 98.335938 Z " fill="rgb(0, 0, 0)" fill-opacity="1.000000" />
<path d="M 300.892578 98.335938 L 300.892578 97.412109 L 307.729980 97.412109 L 307.729980 98.335938 Z " fill="rgb(0, 0, 0)" fill-opacity="1.000000" />
<path d="M 307.892578 98.335938 L 307.892578 97.412109 L 314.729980 97.412109 L 314.729980 98.335938 Z " fill="rgb(0, 0, 0)" fill-opacity="1.000000" />
<path d="M 314.892578 98.335938 L 314.892578 97.412109 L 321.729980 97.412109 L 321.729980 98.335938 Z " fill="rgb(0, 0, 0)" fill-opacity="1.000000" />
<path d="M 321.892578 98.335938 L 321.892578 97.412109 L 328.729980 97.412109 L 328.729980 98.335938 Z " fill="rgb(0, 0, 0)" fill-opacity="1.000000" />
<path d="M 328.892578 98.335938 L 328.892578 97.412109 L 335.729980 97.412109 L 335.729980 98.335938 Z " fill="rgb(0, 0, 0)" fill-opacity="1.000000" />
<path d="M 335.892578 98.335938 L 335.892578 97.412109 L 342.729980 97.412109 L 342.729980 98.335938 Z " fill="rgb(0, 0, 0)" fill-opacity="1.000000" />
<path d="M 342.892578 98.335938 L 342.892578 97.412109 L 349.729980 97.412109 L 349.729980 98.335938 Z " fill="rgb(0, 0, 0)" fill-opacity="1.000000" />
<path d="M 349.892578 98.335938 L 349.892578 97.412109 L 356.729980 97.412109 L 356.729980 98.335938 Z " fill="rgb(0, 0, 0)" fill-opacity="1.000000" />
<path d="M 356.892578 98.335938 L 356.892578 97.412109 L 363.729980 97.412109 L 363.729980 98.335938 Z " fill="rgb(0, 0, 0)" fill-opacity="1.000000" />
<path d="M 363.892578 98.335938 L 363.892578 97.412109 L 370.729980 97.412109 L 370.729980 98.335938 Z " fill="rgb(0, 0, 0)" fill-opacity="1.000000" />
<path d="M 23.878906 13.319336 L 23.878906 6.412109 L 27.729980 6.412109 L 27.729980 7.335938 L 24.738281 7.335938 L 24.738281 13.319336 Z " fill="rgb(0, 0, 0)" fill-opacity="1.000000" />
<path d="M 23.878906 39.319336 L 23.878906 25.300781 L 24.738281 25.300781 L 24.738281 39.319336 Z " fill="rgb(0, 0, 0)" fill-opacity="1.000000" />
<path d="M 23.878906 59.335938 L 23.878906 51.300781 L 24.738281 51.300781 L 24.738281 58.412109 L 27.729980 58.412109 L 27.729980 59.335938 Z " fill="rgb(0, 0, 0)" fill-opacity="1.000000" />
<path d="M 107.878906 78.319336 L 107.878906 64.300781 L 108.738281 64.300781 L 108.738281 78.319336 Z " fill="rgb(0, 0, 0)" fill-opacity="1.000000" />
<path d="M 107.878906 91.319336 L 107.878906 77.300781 L 108.738281 77.300781 L 108.738281 91.319336 Z " fill="rgb(0, 0, 0)" fill-opacity="1.000000" />
<path d="M 34.892578 59.335938 L 34.892578 58.412109 L 41.729980 58.412109 L 41.729980 59.335938 Z " fill="rgb(0, 0, 0)" fill-opacity="1.000000" />
<path d="M 48.892578 59.335938 L 48.892578 58.412109 L 55.729980 58.412109 L 55.729980 59.335938 Z " fill="rgb(0, 0, 0)" fill-opacity="1.000000" />
<path d="M 62.892578 59.335938 L 62.892578 58.412109 L 69.729980 58.412109 L 69.729980 59.335938 Z " fill="rgb(0, 0, 0)" fill-opacity="1.000000" />
<path d="M 76.892578 59.335938 L 76.892578 58.412109 L 83.729980 58.412109 L 83.729980 59.335938 Z " fill="rgb(0, 0, 0)" fill-opacity="1.000000" />
<path d="M 90.892578 59.335938 L 90.892578 58.412109 L 97.729980 58.412109 L 97.729980 59.335938 Z " fill="rgb(0, 0, 0)" fill-opacity="1.000000" />
<path d="M 104.892578 59.335938 L 104.892578 58.412109 L 111.729980 58.412109 L 111.729980 59.335938 Z " fill="rgb(0, 0, 0)" fill-opacity="1.000000" />
<path d="M 118.892578 59.335938 L 118.892578 58.412109 L 125.729980 58.412109 L 125.729980 59.335938 Z " fill="rgb(0, 0, 0)" fill-opacity="1.000000" />
<path d="M 132.892578 59.335938 L 132.892578 58.412109 L 139.729980 58.412109 L 139.729980 59.335938 Z " fill="rgb(0, 0, 0)" fill-opacity="1.000000" />
<path d="M 146.892578 59.335938 L 146.892578 58.412109 L 153.729980 58.412109 L 153.729980 59.335938 Z " fill="rgb(0, 0, 0)" fill-opacity="1.000000" />
<path d="M 160.892578 59.335938 L 160.892578 58.412109 L 167.729980 58.412109 L 167.729980 59.335938 Z " fill="rgb(0, 0, 0)" fill-opacity="1.000000" />
<path d="M 174.892578 59.335938 L 174.892578 58.412109 L 181.729980 58.412109 L 181.729980 59.335938 Z " fill="rgb(0, 0, 0)" fill-opacity="1.000000" />
<path d="M 188.892578 59.335938 L 188.892578 58.412109 L 191.878906 58.412109 L 191.878906 51.300781 L 192.738281 51.300781 L 192.738281 59.335938 Z " fill="rgb(0, 0, 0)" fill-opacity="1.000000" />
<path d="M 77.956055 27.980957 L 83.160645 27.980957 L 83.160645 28.808105 L 78.971191 35.086914 L 83.278809 35.086914 L 83.278809 36.000000 L 77.837891 36.000000 L 77.837891 35.172852 L 81.914551 28.894043 L 77.956055 28.894043 Z " fill="rgb(0, 0, 0)" fill-opacity="1.000000" />
<path d="M 85.697266 30.005859 L 88.227051 30.005859 L 88.227051 35.231934 L 90.187500 35.231934 L 90.187500 36.000000 L 85.278320 36.000000 L 85.278320 35.231934 L 87.238770 35.231934 L 87.238770 30.773926 L 85.697266 30.773926 Z M 87.238770 27.669434 L 88.227051 27.669434 L 88.227051 28.915527 L 87.238770 28.915527 Z " fill="rgb(0, 0, 0)" fill-opacity="1.000000" />
<path d="M 95.608398 32.943848 Q 95.608398 31.832031 95.245850 31.254639 Q 94.883301 30.677246 94.190430 30.677246 Q 93.465332 30.677246 93.083984 31.254639 Q 92.702637 31.832031 92.702637 32.943848 Q 92.702637 34.055664 93.086670 34.638428 Q 93.470703 35.221191 94.201172 35.221191 Q 94.883301 35.221191 95.245850 34.635742 Q 95.608398 34.050293 95.608398 32.943848 Z M 96.596680 35.613281 Q 96.596680 36.966797 95.957520 37.665039 Q 95.318359 38.363281 94.077637 38.363281 Q 93.669434 38.363281 93.223633 38.288086 Q 92.777832 38.212891 92.332031 38.067871 L 92.332031 37.090332 Q 92.858398 37.337402 93.288086 37.455566 Q 93.717773 37.573730 94.077637 37.573730 Q 94.877930 37.573730 95.243164 37.138672 Q 95.608398 36.703613 95.608398 35.758301 L 95.608398 35.715332 L 95.608398 35.043945 Q 95.372070 35.548828 94.963867 35.795898 Q 94.555664 36.042969 93.970215 36.042969 Q 92.917480 36.042969 92.289062 35.199707 Q 91.660645 34.356445 91.660645 32.943848 Q 91.660645 31.525879 92.289062 30.682617 Q 92.917480 29.839355 93.970215 29.839355 Q 94.550293 29.839355 94.953125 30.070312 Q 95.355957 30.301270 95.608398 30.784668 L 95.608398 30.005859 L 96.596680 30.005859 Z " fill="rgb(0, 0, 0)" fill-opacity="1.000000" />
<path d="M 107.341797 35.108398 Q 108.711426 35.108398 109.253906 34.434326 Q 109.796387 33.760254 109.796387 31.998535 Q 109.796387 30.220703 109.256592 29.546631 Q 108.716797 28.872559 107.341797 28.872559 L 106.826172 28.872559 L 106.826172 35.108398 Z M 107.363281 27.980957 Q 109.200195 27.980957 110.070312 28.958496 Q 110.940430 29.936035 110.940430 31.998535 Q 110.940430 34.050293 110.070312 35.025146 Q 109.200195 36.000000 107.363281 36.000000 L 105.735840 36.000000 L 105.735840 27.980957 Z " fill="rgb(0, 0, 0)" fill-opacity="1.000000" />
<path d="M 115.770508 32.976074 L 115.442871 32.976074 Q 114.578125 32.976074 114.140381 33.279541 Q 113.702637 33.583008 113.702637 34.184570 Q 113.702637 34.727051 114.030273 35.027832 Q 114.357910 35.328613 114.937988 35.328613 Q 115.754395 35.328613 116.221680 34.761963 Q 116.688965 34.195312 116.694336 33.196289 L 116.694336 32.976074 Z M 117.687988 32.567871 L 117.687988 36.000000 L 116.694336 36.000000 L 116.694336 35.108398 Q 116.377441 35.645508 115.896729 35.900635 Q 115.416016 36.155762 114.728516 36.155762 Q 113.810059 36.155762 113.262207 35.637451 Q 112.714355 35.119141 112.714355 34.249023 Q 112.714355 33.244629 113.388428 32.723633 Q 114.062500 32.202637 115.367676 32.202637 L 116.694336 32.202637 L 116.694336 32.046875 Q 116.688965 31.327148 116.329102 31.002197 Q 115.969238 30.677246 115.179688 30.677246 Q 114.674805 30.677246 114.159180 30.822266 Q 113.643555 30.967285 113.154785 31.246582 L 113.154785 30.258301 Q 113.702637 30.048828 114.204834 29.944092 Q 114.707031 29.839355 115.179688 29.839355 Q 115.926270 29.839355 116.455322 30.059570 Q 116.984375 30.279785 117.312012 30.720215 Q 117.516113 30.988770 117.602051 31.383545 Q 117.687988 31.778320 117.687988 32.567871 Z " fill="rgb(0, 0, 0)" fill-opacity="1.000000" />
<path d="M 122.297852 28.276367 L 122.297852 29.984375 L 124.542969 29.984375 L 124.542969 30.752441 L 122.297852 30.752441 L 122.297852 34.018066 Q 122.297852 34.684082 122.550293 34.947266 Q 122.802734 35.210449 123.431152 35.210449 L 124.542969 35.210449 L 124.542969 36.000000 L 123.334473 36.000000 Q 122.222656 36.000000 121.766113 35.554199 Q 121.309570 35.108398 121.309570 34.018066 L 121.309570 30.752441 L 119.703613 30.752441 L 119.703613 29.984375 L 121.309570 29.984375 L 121.309570 28.276367 Z " fill="rgb(0, 0, 0)" fill-opacity="1.000000" />
<path d="M 129.770508 32.976074 L 129.442871 32.976074 Q 128.578125 32.976074 128.140381 33.279541 Q 127.702637 33.583008 127.702637 34.184570 Q 127.702637 34.727051 128.030273 35.027832 Q 128.357910 35.328613 128.937988 35.328613 Q 129.754395 35.328613 130.221680 34.761963 Q 130.688965 34.195312 130.694336 33.196289 L 130.694336 32.976074 Z M 131.687988 32.567871 L 131.687988 36.000000 L 130.694336 36.000000 L 130.694336 35.108398 Q 130.377441 35.645508 129.896729 35.900635 Q 129.416016 36.155762 128.728516 36.155762 Q 127.810059 36.155762 127.262207 35.637451 Q 126.714355 35.119141 126.714355 34.249023 Q 126.714355 33.244629 127.388428 32.723633 Q 128.062500 32.202637 129.367676 32.202637 L 130.694336 32.202637 L 130.694336 32.046875 Q 130.688965 31.327148 130.329102 31.002197 Q 129.969238 30.677246 129.179688 30.677246 Q 128.674805 30.677246 128.159180 30.822266 Q 127.643555 30.967285 127.154785 31.246582 L 127.154785 30.258301 Q 127.702637 30.048828 128.204834 29.944092 Q 128.707031 29.839355 129.179688 29.839355 Q 129.926270 29.839355 130.455322 30.059570 Q 130.984375 30.279785 131.312012 30.720215 Q 131.516113 30.988770 131.602051 31.383545 Q 131.687988 31.778320 131.687988 32.567871 Z " fill="rgb(0, 0, 0)" fill-opacity="1.000000" />
<path d="M 191.878906 39.319336 L 191.878906 25.300781 L 192.738281 25.300781 L 192.738281 39.319336 Z " fill="rgb(0, 0, 0)" fill-opacity="1.000000" />
<path d="M 34.892578 7.335938 L 34.892578 6.412109 L 41.729980 6.412109 L 41.729980 7.335938 Z " fill="rgb(0, 0, 0)" fill-opacity="1.000000" />
<path d="M 48.892578 7.335938 L 48.892578 6.412109 L 55.729980 6.412109 L 55.729980 7.335938 Z " fill="rgb(0, 0, 0)" fill-opacity="1.000000" />
<path d="M 62.892578 7.335938 L 62.892578 6.412109 L 69.729980 6.412109 L 69.729980 7.335938 Z " fill="rgb(0, 0, 0)" fill-opacity="1.000000" />
<path d="M 76.892578 7.335938 L 76.892578 6.412109 L 83.729980 6.412109 L 83.729980 7.335938 Z " fill="rgb(0, 0, 0)" fill-opacity="1.000000" />
<path d="M 90.892578 7.335938 L 90.892578 6.412109 L 97.729980 6.412109 L 97.729980 7.335938 Z " fill="rgb(0, 0, 0)" fill-opacity="1.000000" />
<path d="M 104.892578 7.335938 L 104.892578 6.412109 L 111.729980 6.412109 L 111.729980 7.335938 Z " fill="rgb(0, 0, 0)" fill-opacity="1.000000" />
<path d="M 118.892578 7.335938 L 118.892578 6.412109 L 125.729980 6.412109 L 125.729980 7.335938 Z " fill="rgb(0, 0, 0)" fill-opacity="1.000000" />
<path d="M 132.892578 7.335938 L 132.892578 6.412109 L 139.729980 6.412109 L 139.729980 7.335938 Z " fill="rgb(0, 0, 0)" fill-opacity="1.000000" />
<path d="M 146.892578 7.335938 L 146.892578 6.412109 L 153.729980 6.412109 L 153.729980 7.335938 Z " fill="rgb(0, 0, 0)" fill-opacity="1.000000" />
<path d="M 160.892578 7.335938 L 160.892578 6.412109 L 167.729980 6.412109 L 167.729980 7.335938 Z " fill="rgb(0, 0, 0)" fill-opacity="1.000000" />
<path d="M 174.892578 7.335938 L 174.892578 6.412109 L 181.729980 6.412109 L 181.729980 7.335938 Z " fill="rgb(0, 0, 0)" fill-opacity="1.000000" />
<path d="M 191.878906 13.319336 L 191.878906 7.335938 L 188.892578 7.335938 L 188.892578 6.412109 L 192.738281 6.412109 L 192.738281 13.319336 Z " fill="rgb(0, 0, 0)" fill-opacity="1.000000" />
</svg>